<svg width="19" height="19" viewBox="0 0 19 19" fill="none" xmlns="http://www.w3.org/2000/svg">
<path fill-rule="evenodd" clip-rule="evenodd" d="M19 9.5C19 14.7449 14.7449 19 9.5 19C4.25506 19 2.82582e-07 14.7449 7.41109e-07 9.5C1.19964e-06 4.25506 4.25506 -1.37845e-06 9.5 -9.19923e-07C14.7449 -4.61396e-07 19 4.25506 19 9.5ZM9.5 17.5385C13.9378 17.5385 17.5385 13.9378 17.5385 9.5C17.5385 5.06225 13.9378 1.46154 9.5 1.46154C5.06225 1.46154 1.46154 5.06224 1.46154 9.5C1.46154 13.9378 5.06225 17.5385 9.5 17.5385Z" fill="white"/>
<path d="M3.16195 9.92476L8.38923 13.0826C8.46416 13.1275 8.54968 13.1516 8.63702 13.1526C8.72435 13.1535 8.81037 13.1312 8.88624 13.0879C8.9621 13.0446 9.02509 12.9819 9.06874 12.9063C9.11239 12.8306 9.13512 12.7447 9.13462 12.6574L9.13462 10.2221L13.87 13.0826C13.9449 13.1275 14.0304 13.1516 14.1178 13.1526C14.2051 13.1535 14.2911 13.1312 14.367 13.0879C14.4429 13.0446 14.5059 12.9819 14.5495 12.9063C14.5932 12.8306 14.6159 12.7447 14.6154 12.6574L14.6154 6.34262C14.6159 6.25528 14.5932 6.16937 14.5495 6.09372C14.5059 6.01806 14.4429 5.95538 14.367 5.9121C14.2911 5.86882 14.2051 5.8465 14.1178 5.84743C14.0304 5.84837 13.9449 5.87251 13.87 5.9174L9.13462 8.77791L9.13462 6.34262C9.13512 6.25528 9.11239 6.16937 9.06874 6.09372C9.02509 6.01806 8.9621 5.95538 8.88624 5.9121C8.81037 5.86882 8.72435 5.8465 8.63702 5.84743C8.54968 5.84837 8.46416 5.87251 8.38923 5.9174L3.16195 9.07524C3.08909 9.11963 3.02887 9.18202 2.98708 9.2564C2.94529 9.33079 2.92335 9.41468 2.92335 9.5C2.92335 9.58532 2.94529 9.6692 2.98708 9.74359C3.02887 9.81798 3.08909 9.88037 3.16195 9.92476Z" fill="white"/>
</svg>
