<svg width="25" height="26" viewBox="0 0 25 26" fill="none" xmlns="http://www.w3.org/2000/svg">
<path fill-rule="evenodd" clip-rule="evenodd" d="M12.25 2.74878C6.45101 2.74878 1.75 7.44979 1.75 13.2488C1.75 19.0478 6.45101 23.7488 12.25 23.7488C18.049 23.7488 22.75 19.0478 22.75 13.2488C22.75 7.44979 18.049 2.74878 12.25 2.74878ZM0 13.2488C0 6.48329 5.48451 0.998779 12.25 0.998779C19.0155 0.998779 24.5 6.48329 24.5 13.2488C24.5 20.0143 19.0155 25.4988 12.25 25.4988C5.48451 25.4988 0 20.0143 0 13.2488Z" fill="white"/>
<path fill-rule="evenodd" clip-rule="evenodd" d="M12.25 9.74878C10.317 9.74878 8.75 11.3158 8.75 13.2488C8.75 15.1818 10.317 16.7488 12.25 16.7488C14.183 16.7488 15.75 15.1818 15.75 13.2488C15.75 11.3158 14.183 9.74878 12.25 9.74878ZM7 13.2488C7 10.3493 9.3505 7.99878 12.25 7.99878C15.1495 7.99878 17.5 10.3493 17.5 13.2488C17.5 16.1483 15.1495 18.4988 12.25 18.4988C9.3505 18.4988 7 16.1483 7 13.2488Z" fill="white"/>
<path fill-rule="evenodd" clip-rule="evenodd" d="M9.57207 1.32851C10.0544 1.29927 10.4692 1.66661 10.4984 2.14897L10.9359 9.36772C10.9651 9.85009 10.5978 10.2648 10.1154 10.2941C9.63307 10.3233 9.21834 9.95595 9.1891 9.47359L8.7516 2.25484C8.72237 1.77248 9.0897 1.35774 9.57207 1.32851Z" fill="white"/>
<path fill-rule="evenodd" clip-rule="evenodd" d="M14.9279 1.32851C15.4103 1.35774 15.7776 1.77248 15.7484 2.25484L15.3109 9.47359C15.2817 9.95595 14.8669 10.3233 14.3846 10.2941C13.9022 10.2648 13.5349 9.85009 13.5641 9.36772L14.0016 2.14897C14.0308 1.66661 14.4456 1.29927 14.9279 1.32851Z" fill="white"/>
<path fill-rule="evenodd" clip-rule="evenodd" d="M10.1154 16.2035C10.5978 16.2327 10.9651 16.6475 10.9359 17.1298L10.4984 24.3486C10.4692 24.831 10.0544 25.1983 9.57207 25.1691C9.0897 25.1398 8.72237 24.7251 8.7516 24.2427L9.1891 17.024C9.21834 16.5416 9.63307 16.1743 10.1154 16.2035Z" fill="white"/>
<path fill-rule="evenodd" clip-rule="evenodd" d="M14.3846 16.2035C14.8669 16.1743 15.2817 16.5416 15.3109 17.024L15.7484 24.2427C15.7776 24.7251 15.4103 25.1398 14.9279 25.1691C14.4456 25.1983 14.0308 24.831 14.0016 24.3486L13.5641 17.1298C13.5349 16.6475 13.9022 16.2327 14.3846 16.2035Z" fill="white"/>
<path fill-rule="evenodd" clip-rule="evenodd" d="M24.1703 10.5708C24.1995 11.0532 23.8322 11.4679 23.3498 11.4972L16.1311 11.9347C15.6487 11.9639 15.234 11.5966 15.2047 11.1142C15.1755 10.6318 15.5428 10.2171 16.0252 10.1879L23.2439 9.75038C23.7263 9.72115 24.141 10.0885 24.1703 10.5708Z" fill="white"/>
<path fill-rule="evenodd" clip-rule="evenodd" d="M15.2047 15.3833C15.234 14.901 15.6487 14.5336 16.1311 14.5629L23.3498 15.0004C23.8322 15.0296 24.1995 15.4443 24.1703 15.9267C24.141 16.4091 23.7263 16.7764 23.2439 16.7472L16.0252 16.3097C15.5428 16.2804 15.1755 15.8657 15.2047 15.3833Z" fill="white"/>
<path fill-rule="evenodd" clip-rule="evenodd" d="M0.32973 10.5708C0.358964 10.0885 0.773696 9.72115 1.25606 9.75038L8.47481 10.1879C8.95717 10.2171 9.32451 10.6318 9.29527 11.1142C9.26604 11.5966 8.85131 11.9639 8.36894 11.9347L1.15019 11.4972C0.66783 11.4679 0.300495 11.0532 0.32973 10.5708Z" fill="white"/>
<path fill-rule="evenodd" clip-rule="evenodd" d="M9.29527 15.3833C9.32451 15.8657 8.95717 16.2804 8.47481 16.3097L1.25606 16.7472C0.773696 16.7764 0.358964 16.4091 0.32973 15.9267C0.300495 15.4443 0.66783 15.0296 1.15019 15.0004L8.36894 14.5629C8.85131 14.5336 9.26604 14.901 9.29527 15.3833Z" fill="white"/>
</svg>
