<svg width="512" height="512" viewBox="0 0 512 512" fill="none" xmlns="http://www.w3.org/2000/svg">
<rect width="512" height="512" rx="15" fill="#FF7A00"/>
<path d="M156.477 404.699C157.907 404.699 159.027 405.04 159.837 405.723C160.648 406.406 161.053 407.344 161.053 408.539C161.053 409.734 160.648 410.672 159.837 411.355C159.027 412.027 157.907 412.363 156.477 412.363H153.469V415.899H152.285V404.699H156.477ZM156.445 411.323C157.555 411.323 158.403 411.083 158.989 410.603C159.576 410.112 159.869 409.424 159.869 408.539C159.869 407.632 159.576 406.939 158.989 406.459C158.403 405.968 157.555 405.723 156.445 405.723H153.469V411.323H156.445ZM164.243 409.131C164.509 408.566 164.904 408.139 165.427 407.851C165.96 407.563 166.616 407.419 167.395 407.419V408.523L167.123 408.507C166.237 408.507 165.544 408.779 165.043 409.323C164.541 409.867 164.291 410.63 164.291 411.611V415.899H163.155V407.483H164.243V409.131ZM172.38 407.419C173.479 407.419 174.321 407.696 174.908 408.251C175.495 408.795 175.788 409.606 175.788 410.683V415.899H174.7V414.587C174.444 415.024 174.065 415.366 173.564 415.611C173.073 415.856 172.487 415.979 171.804 415.979C170.865 415.979 170.119 415.755 169.564 415.307C169.009 414.859 168.732 414.267 168.732 413.531C168.732 412.816 168.988 412.24 169.5 411.803C170.023 411.366 170.849 411.147 171.98 411.147H174.652V410.635C174.652 409.91 174.449 409.36 174.044 408.987C173.639 408.603 173.047 408.411 172.268 408.411C171.735 408.411 171.223 408.502 170.732 408.683C170.241 408.854 169.82 409.094 169.468 409.403L168.956 408.555C169.383 408.192 169.895 407.915 170.492 407.723C171.089 407.52 171.719 407.419 172.38 407.419ZM171.98 415.083C172.62 415.083 173.169 414.939 173.628 414.651C174.087 414.352 174.428 413.926 174.652 413.371V411.995H172.012C170.572 411.995 169.852 412.496 169.852 413.499C169.852 413.99 170.039 414.379 170.412 414.667C170.785 414.944 171.308 415.083 171.98 415.083ZM183.306 415.387C183.092 415.579 182.826 415.728 182.506 415.835C182.196 415.931 181.871 415.979 181.53 415.979C180.74 415.979 180.132 415.766 179.706 415.339C179.279 414.912 179.066 414.31 179.066 413.531V408.443H177.562V407.483H179.066V405.643H180.202V407.483H182.762V408.443H180.202V413.467C180.202 413.968 180.324 414.352 180.57 414.619C180.826 414.875 181.188 415.003 181.658 415.003C181.892 415.003 182.116 414.966 182.33 414.891C182.554 414.816 182.746 414.71 182.906 414.571L183.306 415.387ZM185.374 407.483H186.51V415.899H185.374V407.483ZM185.95 405.643C185.715 405.643 185.518 405.563 185.358 405.403C185.198 405.243 185.118 405.051 185.118 404.827C185.118 404.614 185.198 404.427 185.358 404.267C185.518 404.107 185.715 404.027 185.95 404.027C186.184 404.027 186.382 404.107 186.542 404.267C186.702 404.416 186.782 404.598 186.782 404.811C186.782 405.046 186.702 405.243 186.542 405.403C186.382 405.563 186.184 405.643 185.95 405.643ZM193.158 415.979C192.326 415.979 191.58 415.798 190.918 415.435C190.268 415.072 189.756 414.566 189.382 413.915C189.009 413.254 188.822 412.512 188.822 411.691C188.822 410.87 189.009 410.134 189.382 409.483C189.756 408.832 190.268 408.326 190.918 407.963C191.58 407.6 192.326 407.419 193.158 407.419C193.884 407.419 194.529 407.563 195.094 407.851C195.67 408.128 196.124 408.539 196.454 409.083L195.606 409.659C195.329 409.243 194.977 408.934 194.55 408.731C194.124 408.518 193.66 408.411 193.158 408.411C192.55 408.411 192.001 408.55 191.51 408.827C191.03 409.094 190.652 409.478 190.374 409.979C190.108 410.48 189.974 411.051 189.974 411.691C189.974 412.342 190.108 412.918 190.374 413.419C190.652 413.91 191.03 414.294 191.51 414.571C192.001 414.838 192.55 414.971 193.158 414.971C193.66 414.971 194.124 414.87 194.55 414.667C194.977 414.464 195.329 414.155 195.606 413.739L196.454 414.315C196.124 414.859 195.67 415.275 195.094 415.563C194.518 415.84 193.873 415.979 193.158 415.979ZM201.63 407.419C202.729 407.419 203.571 407.696 204.158 408.251C204.745 408.795 205.038 409.606 205.038 410.683V415.899H203.95V414.587C203.694 415.024 203.315 415.366 202.814 415.611C202.323 415.856 201.737 415.979 201.054 415.979C200.115 415.979 199.369 415.755 198.814 415.307C198.259 414.859 197.982 414.267 197.982 413.531C197.982 412.816 198.238 412.24 198.75 411.803C199.273 411.366 200.099 411.147 201.23 411.147H203.902V410.635C203.902 409.91 203.699 409.36 203.294 408.987C202.889 408.603 202.297 408.411 201.518 408.411C200.985 408.411 200.473 408.502 199.982 408.683C199.491 408.854 199.07 409.094 198.718 409.403L198.206 408.555C198.633 408.192 199.145 407.915 199.742 407.723C200.339 407.52 200.969 407.419 201.63 407.419ZM201.23 415.083C201.87 415.083 202.419 414.939 202.878 414.651C203.337 414.352 203.678 413.926 203.902 413.371V411.995H201.262C199.822 411.995 199.102 412.496 199.102 413.499C199.102 413.99 199.289 414.379 199.662 414.667C200.035 414.944 200.558 415.083 201.23 415.083ZM209.212 409.131C209.478 408.566 209.873 408.139 210.396 407.851C210.929 407.563 211.585 407.419 212.364 407.419V408.523L212.092 408.507C211.206 408.507 210.513 408.779 210.012 409.323C209.51 409.867 209.26 410.63 209.26 411.611V415.899H208.124V407.483H209.212V409.131ZM226.061 412.043H219.021C219.085 412.918 219.421 413.627 220.029 414.171C220.637 414.704 221.405 414.971 222.333 414.971C222.856 414.971 223.336 414.88 223.773 414.699C224.21 414.507 224.589 414.23 224.909 413.867L225.549 414.603C225.176 415.051 224.706 415.392 224.141 415.627C223.586 415.862 222.973 415.979 222.301 415.979C221.437 415.979 220.669 415.798 219.997 415.435C219.336 415.062 218.818 414.55 218.445 413.899C218.072 413.248 217.885 412.512 217.885 411.691C217.885 410.87 218.061 410.134 218.413 409.483C218.776 408.832 219.266 408.326 219.885 407.963C220.514 407.6 221.218 407.419 221.997 407.419C222.776 407.419 223.474 407.6 224.093 407.963C224.712 408.326 225.197 408.832 225.549 409.483C225.901 410.123 226.077 410.859 226.077 411.691L226.061 412.043ZM221.997 408.395C221.186 408.395 220.504 408.656 219.949 409.179C219.405 409.691 219.096 410.363 219.021 411.195H224.989C224.914 410.363 224.6 409.691 224.045 409.179C223.501 408.656 222.818 408.395 221.997 408.395ZM235.521 407.419C236.619 407.419 237.462 407.696 238.049 408.251C238.635 408.795 238.929 409.606 238.929 410.683V415.899H237.841V414.587C237.585 415.024 237.206 415.366 236.705 415.611C236.214 415.856 235.627 415.979 234.945 415.979C234.006 415.979 233.259 415.755 232.705 415.307C232.15 414.859 231.873 414.267 231.873 413.531C231.873 412.816 232.129 412.24 232.641 411.803C233.163 411.366 233.99 411.147 235.121 411.147H237.793V410.635C237.793 409.91 237.59 409.36 237.185 408.987C236.779 408.603 236.187 408.411 235.409 408.411C234.875 408.411 234.363 408.502 233.873 408.683C233.382 408.854 232.961 409.094 232.609 409.403L232.097 408.555C232.523 408.192 233.035 407.915 233.633 407.723C234.23 407.52 234.859 407.419 235.521 407.419ZM235.121 415.083C235.761 415.083 236.31 414.939 236.769 414.651C237.227 414.352 237.569 413.926 237.793 413.371V411.995H235.153C233.713 411.995 232.993 412.496 232.993 413.499C232.993 413.99 233.179 414.379 233.553 414.667C233.926 414.944 234.449 415.083 235.121 415.083ZM246.35 407.419C247.139 407.419 247.854 407.6 248.494 407.963C249.134 408.315 249.635 408.816 249.998 409.467C250.361 410.118 250.542 410.859 250.542 411.691C250.542 412.534 250.361 413.28 249.998 413.931C249.635 414.582 249.134 415.088 248.494 415.451C247.865 415.803 247.15 415.979 246.35 415.979C245.667 415.979 245.049 415.84 244.494 415.563C243.95 415.275 243.502 414.859 243.15 414.315V419.003H242.014V407.483H243.102V409.147C243.443 408.592 243.891 408.166 244.446 407.867C245.011 407.568 245.646 407.419 246.35 407.419ZM246.27 414.971C246.857 414.971 247.39 414.838 247.87 414.571C248.35 414.294 248.723 413.904 248.99 413.403C249.267 412.902 249.406 412.331 249.406 411.691C249.406 411.051 249.267 410.486 248.99 409.995C248.723 409.494 248.35 409.104 247.87 408.827C247.39 408.55 246.857 408.411 246.27 408.411C245.673 408.411 245.134 408.55 244.654 408.827C244.185 409.104 243.811 409.494 243.534 409.995C243.267 410.486 243.134 411.051 243.134 411.691C243.134 412.331 243.267 412.902 243.534 413.403C243.811 413.904 244.185 414.294 244.654 414.571C245.134 414.838 245.673 414.971 246.27 414.971ZM253.946 409.131C254.213 408.566 254.607 408.139 255.13 407.851C255.663 407.563 256.319 407.419 257.098 407.419V408.523L256.826 408.507C255.941 408.507 255.247 408.779 254.746 409.323C254.245 409.867 253.994 410.63 253.994 411.611V415.899H252.858V407.483H253.946V409.131ZM266.405 412.043H259.365C259.429 412.918 259.765 413.627 260.373 414.171C260.981 414.704 261.749 414.971 262.677 414.971C263.199 414.971 263.679 414.88 264.117 414.699C264.554 414.507 264.933 414.23 265.253 413.867L265.893 414.603C265.519 415.051 265.05 415.392 264.485 415.627C263.93 415.862 263.317 415.979 262.645 415.979C261.781 415.979 261.013 415.798 260.341 415.435C259.679 415.062 259.162 414.55 258.789 413.899C258.415 413.248 258.229 412.512 258.229 411.691C258.229 410.87 258.405 410.134 258.757 409.483C259.119 408.832 259.61 408.326 260.229 407.963C260.858 407.6 261.562 407.419 262.341 407.419C263.119 407.419 263.818 407.6 264.437 407.963C265.055 408.326 265.541 408.832 265.893 409.483C266.245 410.123 266.421 410.859 266.421 411.691L266.405 412.043ZM262.341 408.395C261.53 408.395 260.847 408.656 260.293 409.179C259.749 409.691 259.439 410.363 259.365 411.195H265.333C265.258 410.363 264.943 409.691 264.389 409.179C263.845 408.656 263.162 408.395 262.341 408.395ZM273.021 407.419C274.077 407.419 274.914 407.728 275.533 408.347C276.162 408.955 276.477 409.846 276.477 411.019V415.899H275.341V411.131C275.341 410.256 275.122 409.59 274.685 409.131C274.248 408.672 273.624 408.443 272.813 408.443C271.906 408.443 271.186 408.715 270.653 409.259C270.13 409.792 269.869 410.534 269.869 411.483V415.899H268.733V407.483H269.821V409.035C270.13 408.523 270.557 408.128 271.101 407.851C271.656 407.563 272.296 407.419 273.021 407.419ZM287.272 404.027V415.899H286.184V414.235C285.843 414.8 285.39 415.232 284.824 415.531C284.27 415.83 283.64 415.979 282.936 415.979C282.147 415.979 281.432 415.798 280.792 415.435C280.152 415.072 279.651 414.566 279.288 413.915C278.926 413.264 278.744 412.523 278.744 411.691C278.744 410.859 278.926 410.118 279.288 409.467C279.651 408.816 280.152 408.315 280.792 407.963C281.432 407.6 282.147 407.419 282.936 407.419C283.619 407.419 284.232 407.563 284.776 407.851C285.331 408.128 285.784 408.539 286.136 409.083V404.027H287.272ZM283.032 414.971C283.619 414.971 284.147 414.838 284.616 414.571C285.096 414.294 285.47 413.904 285.736 413.403C286.014 412.902 286.152 412.331 286.152 411.691C286.152 411.051 286.014 410.48 285.736 409.979C285.47 409.478 285.096 409.094 284.616 408.827C284.147 408.55 283.619 408.411 283.032 408.411C282.435 408.411 281.896 408.55 281.416 408.827C280.947 409.094 280.574 409.478 280.296 409.979C280.03 410.48 279.896 411.051 279.896 411.691C279.896 412.331 280.03 412.902 280.296 413.403C280.574 413.904 280.947 414.294 281.416 414.571C281.896 414.838 282.435 414.971 283.032 414.971ZM297.764 412.043H290.724C290.788 412.918 291.124 413.627 291.732 414.171C292.34 414.704 293.108 414.971 294.036 414.971C294.559 414.971 295.039 414.88 295.476 414.699C295.913 414.507 296.292 414.23 296.612 413.867L297.252 414.603C296.879 415.051 296.409 415.392 295.844 415.627C295.289 415.862 294.676 415.979 294.004 415.979C293.14 415.979 292.372 415.798 291.7 415.435C291.039 415.062 290.521 414.55 290.148 413.899C289.775 413.248 289.588 412.512 289.588 411.691C289.588 410.87 289.764 410.134 290.116 409.483C290.479 408.832 290.969 408.326 291.588 407.963C292.217 407.6 292.921 407.419 293.7 407.419C294.479 407.419 295.177 407.6 295.796 407.963C296.415 408.326 296.9 408.832 297.252 409.483C297.604 410.123 297.78 410.859 297.78 411.691L297.764 412.043ZM293.7 408.395C292.889 408.395 292.207 408.656 291.652 409.179C291.108 409.691 290.799 410.363 290.724 411.195H296.692C296.617 410.363 296.303 409.691 295.748 409.179C295.204 408.656 294.521 408.395 293.7 408.395ZM301.18 409.131C301.447 408.566 301.842 408.139 302.364 407.851C302.898 407.563 303.554 407.419 304.332 407.419V408.523L304.06 408.507C303.175 408.507 302.482 408.779 301.98 409.323C301.479 409.867 301.228 410.63 301.228 411.611V415.899H300.092V407.483H301.18V409.131ZM310.942 404.699H312.126V414.875H318.398V415.899H310.942V404.699ZM320.124 407.483H321.26V415.899H320.124V407.483ZM320.7 405.643C320.465 405.643 320.268 405.563 320.108 405.403C319.948 405.243 319.868 405.051 319.868 404.827C319.868 404.614 319.948 404.427 320.108 404.267C320.268 404.107 320.465 404.027 320.7 404.027C320.934 404.027 321.132 404.107 321.292 404.267C321.452 404.416 321.532 404.598 321.532 404.811C321.532 405.046 321.452 405.243 321.292 405.403C321.132 405.563 320.934 405.643 320.7 405.643ZM328.756 407.419C329.546 407.419 330.26 407.6 330.9 407.963C331.54 408.315 332.042 408.816 332.404 409.467C332.767 410.118 332.948 410.859 332.948 411.691C332.948 412.523 332.767 413.264 332.404 413.915C332.042 414.566 331.54 415.072 330.9 415.435C330.26 415.798 329.546 415.979 328.756 415.979C328.052 415.979 327.418 415.83 326.852 415.531C326.298 415.232 325.85 414.8 325.508 414.235V415.899H324.42V404.027H325.556V409.083C325.908 408.539 326.356 408.128 326.9 407.851C327.455 407.563 328.074 407.419 328.756 407.419ZM328.676 414.971C329.263 414.971 329.796 414.838 330.276 414.571C330.756 414.294 331.13 413.904 331.396 413.403C331.674 412.902 331.812 412.331 331.812 411.691C331.812 411.051 331.674 410.48 331.396 409.979C331.13 409.478 330.756 409.094 330.276 408.827C329.796 408.55 329.263 408.411 328.676 408.411C328.079 408.411 327.54 408.55 327.06 408.827C326.591 409.094 326.218 409.478 325.94 409.979C325.674 410.48 325.54 411.051 325.54 411.691C325.54 412.331 325.674 412.902 325.94 413.403C326.218 413.904 326.591 414.294 327.06 414.571C327.54 414.838 328.079 414.971 328.676 414.971ZM336.352 409.131C336.619 408.566 337.013 408.139 337.536 407.851C338.069 407.563 338.725 407.419 339.504 407.419V408.523L339.232 408.507C338.347 408.507 337.653 408.779 337.152 409.323C336.651 409.867 336.4 410.63 336.4 411.611V415.899H335.264V407.483H336.352V409.131ZM344.489 407.419C345.588 407.419 346.431 407.696 347.017 408.251C347.604 408.795 347.897 409.606 347.897 410.683V415.899H346.809V414.587C346.553 415.024 346.175 415.366 345.673 415.611C345.183 415.856 344.596 415.979 343.913 415.979C342.975 415.979 342.228 415.755 341.673 415.307C341.119 414.859 340.841 414.267 340.841 413.531C340.841 412.816 341.097 412.24 341.609 411.803C342.132 411.366 342.959 411.147 344.089 411.147H346.761V410.635C346.761 409.91 346.559 409.36 346.153 408.987C345.748 408.603 345.156 408.411 344.377 408.411C343.844 408.411 343.332 408.502 342.841 408.683C342.351 408.854 341.929 409.094 341.577 409.403L341.065 408.555C341.492 408.192 342.004 407.915 342.601 407.723C343.199 407.52 343.828 407.419 344.489 407.419ZM344.089 415.083C344.729 415.083 345.279 414.939 345.737 414.651C346.196 414.352 346.537 413.926 346.761 413.371V411.995H344.121C342.681 411.995 341.961 412.496 341.961 413.499C341.961 413.99 342.148 414.379 342.521 414.667C342.895 414.944 343.417 415.083 344.089 415.083ZM353.239 415.979C352.556 415.979 351.9 415.883 351.271 415.691C350.652 415.488 350.167 415.238 349.815 414.939L350.327 414.043C350.679 414.32 351.122 414.55 351.655 414.731C352.188 414.902 352.743 414.987 353.319 414.987C354.087 414.987 354.652 414.87 355.015 414.635C355.388 414.39 355.575 414.048 355.575 413.611C355.575 413.302 355.474 413.062 355.271 412.891C355.068 412.71 354.812 412.576 354.503 412.491C354.194 412.395 353.783 412.304 353.271 412.219C352.588 412.091 352.039 411.963 351.623 411.835C351.207 411.696 350.85 411.467 350.551 411.147C350.263 410.827 350.119 410.384 350.119 409.819C350.119 409.115 350.412 408.539 350.999 408.091C351.586 407.643 352.402 407.419 353.447 407.419C353.991 407.419 354.535 407.494 355.079 407.643C355.623 407.782 356.071 407.968 356.423 408.203L355.927 409.115C355.234 408.635 354.407 408.395 353.447 408.395C352.722 408.395 352.172 408.523 351.799 408.779C351.436 409.035 351.255 409.371 351.255 409.787C351.255 410.107 351.356 410.363 351.559 410.555C351.772 410.747 352.034 410.891 352.343 410.987C352.652 411.072 353.079 411.163 353.623 411.259C354.295 411.387 354.834 411.515 355.239 411.643C355.644 411.771 355.991 411.99 356.279 412.299C356.567 412.608 356.711 413.035 356.711 413.579C356.711 414.315 356.402 414.902 355.783 415.339C355.175 415.766 354.327 415.979 353.239 415.979ZM218.821 439.083C218.469 439.083 218.138 439.035 217.829 438.939C217.509 438.854 217.247 438.72 217.045 438.539L217.445 437.675C217.775 437.963 218.213 438.107 218.757 438.107C219.205 438.107 219.546 437.974 219.781 437.707C220.026 437.44 220.149 437.046 220.149 436.523V427.483H221.285V436.523C221.285 437.312 221.071 437.936 220.645 438.395C220.218 438.854 219.61 439.083 218.821 439.083ZM220.725 425.627C220.49 425.627 220.293 425.547 220.133 425.387C219.973 425.227 219.893 425.035 219.893 424.811C219.893 424.598 219.973 424.411 220.133 424.251C220.293 424.091 220.49 424.011 220.725 424.011C220.959 424.011 221.157 424.091 221.317 424.251C221.477 424.4 221.557 424.582 221.557 424.795C221.557 425.03 221.477 425.227 221.317 425.387C221.157 425.547 220.959 425.627 220.725 425.627ZM227.899 435.979C227.089 435.979 226.358 435.798 225.707 435.435C225.057 435.062 224.545 434.55 224.171 433.899C223.798 433.248 223.611 432.512 223.611 431.691C223.611 430.87 223.798 430.134 224.171 429.483C224.545 428.832 225.057 428.326 225.707 427.963C226.358 427.6 227.089 427.419 227.899 427.419C228.71 427.419 229.441 427.6 230.091 427.963C230.742 428.326 231.249 428.832 231.611 429.483C231.985 430.134 232.171 430.87 232.171 431.691C232.171 432.512 231.985 433.248 231.611 433.899C231.249 434.55 230.742 435.062 230.091 435.435C229.441 435.798 228.71 435.979 227.899 435.979ZM227.899 434.971C228.497 434.971 229.03 434.838 229.499 434.571C229.979 434.294 230.353 433.904 230.619 433.403C230.886 432.902 231.019 432.331 231.019 431.691C231.019 431.051 230.886 430.48 230.619 429.979C230.353 429.478 229.979 429.094 229.499 428.827C229.03 428.55 228.497 428.411 227.899 428.411C227.302 428.411 226.763 428.55 226.283 428.827C225.814 429.094 225.441 429.478 225.163 429.979C224.897 430.48 224.763 431.051 224.763 431.691C224.763 432.331 224.897 432.902 225.163 433.403C225.441 433.904 225.814 434.294 226.283 434.571C226.763 434.838 227.302 434.971 227.899 434.971ZM242.283 427.483V434.875C242.283 436.304 241.931 437.36 241.227 438.043C240.533 438.736 239.483 439.083 238.075 439.083C237.296 439.083 236.555 438.966 235.851 438.731C235.157 438.507 234.592 438.192 234.155 437.787L234.731 436.923C235.136 437.286 235.627 437.568 236.203 437.771C236.789 437.974 237.403 438.075 238.043 438.075C239.109 438.075 239.893 437.824 240.395 437.323C240.896 436.832 241.147 436.064 241.147 435.019V433.947C240.795 434.48 240.331 434.886 239.755 435.163C239.189 435.44 238.56 435.579 237.867 435.579C237.077 435.579 236.357 435.408 235.707 435.067C235.067 434.715 234.56 434.23 234.187 433.611C233.824 432.982 233.643 432.272 233.643 431.483C233.643 430.694 233.824 429.99 234.187 429.371C234.56 428.752 235.067 428.272 235.707 427.931C236.347 427.59 237.067 427.419 237.867 427.419C238.581 427.419 239.227 427.563 239.803 427.851C240.379 428.139 240.843 428.555 241.195 429.099V427.483H242.283ZM237.979 434.571C238.587 434.571 239.136 434.443 239.627 434.187C240.117 433.92 240.496 433.552 240.763 433.083C241.04 432.614 241.179 432.08 241.179 431.483C241.179 430.886 241.04 430.358 240.763 429.899C240.496 429.43 240.117 429.067 239.627 428.811C239.147 428.544 238.597 428.411 237.979 428.411C237.371 428.411 236.821 428.539 236.331 428.795C235.851 429.051 235.472 429.414 235.195 429.883C234.928 430.352 234.795 430.886 234.795 431.483C234.795 432.08 234.928 432.614 235.195 433.083C235.472 433.552 235.851 433.92 236.331 434.187C236.821 434.443 237.371 434.571 237.979 434.571ZM248.403 427.419C249.502 427.419 250.345 427.696 250.931 428.251C251.518 428.795 251.811 429.606 251.811 430.683V435.899H250.723V434.587C250.467 435.024 250.089 435.366 249.587 435.611C249.097 435.856 248.51 435.979 247.827 435.979C246.889 435.979 246.142 435.755 245.587 435.307C245.033 434.859 244.755 434.267 244.755 433.531C244.755 432.816 245.011 432.24 245.523 431.803C246.046 431.366 246.873 431.147 248.003 431.147H250.675V430.635C250.675 429.91 250.473 429.36 250.067 428.987C249.662 428.603 249.07 428.411 248.291 428.411C247.758 428.411 247.246 428.502 246.755 428.683C246.265 428.854 245.843 429.094 245.491 429.403L244.979 428.555C245.406 428.192 245.918 427.915 246.515 427.723C247.113 427.52 247.742 427.419 248.403 427.419ZM248.003 435.083C248.643 435.083 249.193 434.939 249.651 434.651C250.11 434.352 250.451 433.926 250.675 433.371V431.995H248.035C246.595 431.995 245.875 432.496 245.875 433.499C245.875 433.99 246.062 434.379 246.435 434.667C246.809 434.944 247.331 435.083 248.003 435.083ZM259.185 427.419C260.241 427.419 261.078 427.728 261.697 428.347C262.326 428.955 262.641 429.846 262.641 431.019V435.899H261.505V431.131C261.505 430.256 261.286 429.59 260.849 429.131C260.412 428.672 259.788 428.443 258.977 428.443C258.07 428.443 257.35 428.715 256.817 429.259C256.294 429.792 256.033 430.534 256.033 431.483V435.899H254.897V427.483H255.985V429.035C256.294 428.523 256.721 428.128 257.265 427.851C257.82 427.563 258.46 427.419 259.185 427.419ZM273.436 424.027V435.899H272.348V434.235C272.007 434.8 271.554 435.232 270.988 435.531C270.434 435.83 269.804 435.979 269.1 435.979C268.311 435.979 267.596 435.798 266.956 435.435C266.316 435.072 265.815 434.566 265.452 433.915C265.09 433.264 264.908 432.523 264.908 431.691C264.908 430.859 265.09 430.118 265.452 429.467C265.815 428.816 266.316 428.315 266.956 427.963C267.596 427.6 268.311 427.419 269.1 427.419C269.783 427.419 270.396 427.563 270.94 427.851C271.495 428.128 271.948 428.539 272.3 429.083V424.027H273.436ZM269.196 434.971C269.783 434.971 270.311 434.838 270.78 434.571C271.26 434.294 271.634 433.904 271.9 433.403C272.178 432.902 272.316 432.331 272.316 431.691C272.316 431.051 272.178 430.48 271.9 429.979C271.634 429.478 271.26 429.094 270.78 428.827C270.311 428.55 269.783 428.411 269.196 428.411C268.599 428.411 268.06 428.55 267.58 428.827C267.111 429.094 266.738 429.478 266.46 429.979C266.194 430.48 266.06 431.051 266.06 431.691C266.06 432.331 266.194 432.902 266.46 433.403C266.738 433.904 267.111 434.294 267.58 434.571C268.06 434.838 268.599 434.971 269.196 434.971ZM280.04 435.979C279.229 435.979 278.499 435.798 277.848 435.435C277.197 435.062 276.685 434.55 276.312 433.899C275.939 433.248 275.752 432.512 275.752 431.691C275.752 430.87 275.939 430.134 276.312 429.483C276.685 428.832 277.197 428.326 277.848 427.963C278.499 427.6 279.229 427.419 280.04 427.419C280.851 427.419 281.581 427.6 282.232 427.963C282.883 428.326 283.389 428.832 283.752 429.483C284.125 430.134 284.312 430.87 284.312 431.691C284.312 432.512 284.125 433.248 283.752 433.899C283.389 434.55 282.883 435.062 282.232 435.435C281.581 435.798 280.851 435.979 280.04 435.979ZM280.04 434.971C280.637 434.971 281.171 434.838 281.64 434.571C282.12 434.294 282.493 433.904 282.76 433.403C283.027 432.902 283.16 432.331 283.16 431.691C283.16 431.051 283.027 430.48 282.76 429.979C282.493 429.478 282.12 429.094 281.64 428.827C281.171 428.55 280.637 428.411 280.04 428.411C279.443 428.411 278.904 428.55 278.424 428.827C277.955 429.094 277.581 429.478 277.304 429.979C277.037 430.48 276.904 431.051 276.904 431.691C276.904 432.331 277.037 432.902 277.304 433.403C277.581 433.904 277.955 434.294 278.424 434.571C278.904 434.838 279.443 434.971 280.04 434.971ZM286.455 424.699H287.799L287.559 432.539H286.679L286.455 424.699ZM287.127 435.979C286.893 435.979 286.69 435.899 286.519 435.739C286.359 435.568 286.279 435.371 286.279 435.147C286.279 434.912 286.359 434.72 286.519 434.571C286.679 434.411 286.882 434.331 287.127 434.331C287.362 434.331 287.559 434.411 287.719 434.571C287.879 434.72 287.959 434.912 287.959 435.147C287.959 435.371 287.879 435.568 287.719 435.739C287.559 435.899 287.362 435.979 287.127 435.979Z" fill="white"/>
<path opacity="0.1" d="M250.071 90.1225C238.532 88.7381 227.739 84.4855 216.847 80.8896C204.733 76.9101 192.374 73.7154 179.849 71.3253C166.505 68.7732 152.75 67.11 139.371 68.2993C125.993 69.4887 112.94 73.766 104.408 81.5865C89.9522 94.852 91.172 114.959 95.9461 132.682C101.612 153.709 111.408 174.495 127.442 192.403C138.839 205.133 153.14 216.153 167.313 227.092C175.326 233.265 183.413 239.481 192.772 244.334C201.478 248.844 211.092 252.078 220.637 255.265C230.829 258.672 241.046 262.097 251.57 264.702C285.159 273.015 320.519 272.755 355.092 272.015C367.26 271.757 379.979 271.333 390.186 266.579C398.14 262.862 403.809 256.841 408.103 250.421C413.723 242.008 417.271 231.97 413.28 222.589C407.397 208.75 387.236 200.598 380.524 186.97C371.923 169.483 388.629 150.999 383.901 132.796C381.935 125.224 376.39 118.379 370.514 111.995C356.498 96.7754 337.869 82.9121 312.831 84.9377C291.633 86.6474 272.298 92.7924 250.071 90.1225Z" fill="#6C63FF"/>
<path d="M198.376 81.6176H295.283C297.823 81.6175 300.259 82.6249 302.058 84.4188C303.857 86.2127 304.872 88.647 304.88 91.188V303.455C304.872 305.996 303.857 308.43 302.058 310.224C300.259 312.018 297.823 313.025 295.283 313.025H198.376C195.836 313.025 193.399 312.018 191.6 310.224C189.801 308.43 188.786 305.996 188.778 303.455V91.185C188.787 88.6444 189.802 86.211 191.601 84.4177C193.4 82.6244 195.836 81.6175 198.376 81.6176V81.6176Z" fill="url(#paint0_linear)"/>
<path d="M197.98 312.139H295.673C300.267 312.139 303.992 308.413 303.992 303.817V91.7115C303.992 87.1152 300.267 83.3892 295.673 83.3892H197.98C193.385 83.3892 189.661 87.1152 189.661 91.7115L189.661 303.817C189.661 308.413 193.385 312.139 197.98 312.139Z" fill="#4E5A86"/>
<path d="M198.079 290.861H295.571V104.67H198.079L198.079 290.861Z" fill="white"/>
<path d="M247.269 305.933C250.696 305.933 253.473 303.154 253.473 299.726C253.473 296.298 250.696 293.519 247.269 293.519C243.842 293.519 241.064 296.298 241.064 299.726C241.064 303.154 243.842 305.933 247.269 305.933Z" fill="white"/>
<path opacity="0.1" d="M242.182 321.211C285.614 321.211 320.822 314.417 320.822 306.035C320.822 297.653 285.614 290.858 242.182 290.858C198.751 290.858 163.542 297.653 163.542 306.035C163.542 314.417 198.751 321.211 242.182 321.211Z" fill="#6C63FF"/>
<path opacity="0.1" d="M284.443 133.518H209.209V234.179H284.443V133.518Z" fill="#6C63FF"/>
<path d="M273.629 182.315C273.443 182.105 273.254 181.9 273.059 181.696C274.555 179.999 276.106 178.255 276.09 176.074C276.075 173.42 273.722 171.385 272.843 168.876C271.647 165.469 273.307 161.808 273.988 158.262C274.52 155.38 274.408 152.415 273.662 149.581C272.916 146.747 271.554 144.112 269.672 141.865C268.982 141.048 268.18 140.258 267.149 139.936C265.585 139.44 263.92 140.128 262.291 140.329C256.907 140.992 252.009 136.352 246.6 136.767C246.242 136.781 245.889 136.861 245.56 137.003C244.86 137.337 244.483 138.074 244.049 138.712C242.368 141.19 239.547 142.429 236.739 143.668C236.387 143.773 236.052 143.927 235.742 144.126C234.9 144.52 234.071 144.928 233.287 145.393C229.386 147.734 228.767 150.736 229.984 153.238C230.447 154.161 231.091 154.981 231.879 155.648C231.849 155.799 231.812 155.949 231.767 156.097C230.971 158.959 228.185 161.527 228.693 164.503C228.804 165.082 229.014 165.639 229.312 166.148V166.148C230.139 167.644 231.507 168.935 232.033 170.558C232.088 170.723 232.132 170.89 232.166 171.06C232.451 172.478 231.999 173.829 231.377 175.17C225.445 176.542 218.745 179.069 218.225 183.532C217.315 191.294 214.578 212.733 214.578 212.733C214.578 212.733 212.745 222.645 217.16 223.852C218.55 224.23 220.566 223.738 223.457 221.79L223.302 222.248C223.268 222.35 223.234 222.449 223.203 222.558C221.939 226.358 220.928 230.238 220.175 234.172H262.777C262.419 231.699 261.863 229.257 261.115 226.872C261.062 226.699 261.009 226.541 260.963 226.392C262.173 226.913 263.414 227.36 264.678 227.73C266.248 228.201 267.508 228.195 268.52 227.894C272.208 226.795 272.598 221.799 272.598 221.799L274.183 209.621L276.078 191.461C276.358 190.674 276.499 189.844 276.496 189.008C276.496 187.258 275.901 184.905 273.629 182.315ZM241.281 170.88C241.303 170.67 241.318 170.456 241.331 170.245L241.387 170.282C241.387 170.484 241.365 170.685 241.343 170.883C241.343 170.883 241.343 170.905 241.343 170.917C241.283 171.551 241.148 172.174 240.941 172.776C241.105 172.154 241.219 171.52 241.281 170.88ZM262.78 214.805C261.83 215.239 260.564 214.616 260.564 214.616C260.672 214.815 260.774 215.007 260.873 215.199C260.874 215.206 260.874 215.213 260.873 215.22L260.805 215.183L260.077 214.812C260.374 213.339 260.855 211.909 261.508 210.556C262.062 209.429 262.556 208.273 262.988 207.093V207.093C263.17 206.573 263.322 206.096 263.446 205.656C263.424 207.607 263.518 209.558 263.728 211.498C264 213.607 263.477 214.493 262.78 214.805V214.805Z" fill="url(#paint1_linear)"/>
<path d="M233.668 146.715C232.656 147.406 231.594 148.205 231.234 149.379C230.652 151.272 232.114 153.17 232.256 155.146C232.519 158.736 228.46 161.703 229.058 165.256C229.467 167.69 231.962 169.344 232.442 171.76C233.142 175.291 229.318 178.403 229.618 181.981C229.779 183.892 231.108 185.515 232.612 186.698C234.728 188.354 237.259 189.394 239.928 189.702C239.752 186.633 237.473 183.836 237.866 180.785C238.136 178.695 239.606 176.982 240.458 175.052C241.953 171.664 241.473 167.743 240.578 164.15C239.684 160.557 238.386 157.005 238.321 153.31C238.281 151.08 239.328 147.806 238.56 145.69C237.628 143.126 235.405 145.532 233.668 146.715Z" fill="#B0605D"/>
<path opacity="0.1" d="M233.978 146.096C232.965 146.787 231.903 147.586 231.544 148.76C230.962 150.652 232.423 152.551 232.566 154.527C232.829 158.116 228.77 161.084 229.368 164.636C229.776 167.071 232.272 168.725 232.751 171.14C233.451 174.671 229.628 177.784 229.928 181.361C230.089 183.272 231.417 184.895 232.922 186.078C235.037 187.735 237.569 188.775 240.238 189.083C240.061 186.013 237.783 183.217 238.176 180.166C238.445 178.075 239.916 176.362 240.767 174.433C242.263 171.044 241.783 167.123 240.888 163.53C239.993 159.938 238.696 156.385 238.631 152.69C238.591 150.46 239.637 147.186 238.869 145.071C237.937 142.506 235.714 144.913 233.978 146.096Z" fill="black"/>
<path d="M237.253 192.654C237.253 192.654 220.844 175.929 233.228 177.168C236.036 177.45 237.937 176.948 239.197 176.006C240.634 174.935 241.238 173.293 241.405 171.58C241.746 168.173 240.349 164.457 240.349 164.457C240.349 164.457 257.068 151.138 253.662 167.864C253.288 169.563 253.071 171.293 253.012 173.033C252.956 176.582 254.124 177.942 255.761 178.499C258.523 179.444 262.628 178.122 264.498 181.182C267.904 186.769 237.253 192.654 237.253 192.654Z" fill="#FFB9B9"/>
<path opacity="0.05" d="M253.662 167.876C253.288 169.576 253.071 171.306 253.012 173.045C252.567 173.2 252.113 173.329 251.653 173.432C249.908 173.826 248.101 173.864 246.34 173.545C244.58 173.226 242.901 172.556 241.405 171.574C241.746 168.167 240.349 164.45 240.349 164.45C240.349 164.45 257.068 151.151 253.662 167.876Z" fill="black"/>
<path d="M262.022 159.823C262.022 163.355 260.619 166.743 258.122 169.24C255.626 171.738 252.239 173.141 248.709 173.141C245.178 173.141 241.791 171.738 239.295 169.24C236.798 166.743 235.396 163.355 235.396 159.823C235.396 159.575 235.396 159.327 235.417 159.083C235.615 155.624 237.152 152.378 239.703 150.034C242.253 147.69 245.617 146.433 249.079 146.529C252.541 146.626 255.829 148.068 258.246 150.55C260.662 153.032 262.017 156.358 262.022 159.823V159.823Z" fill="#FFB9B9"/>
<path opacity="0.05" d="M237.253 192.654C237.253 192.654 220.844 175.929 233.228 177.168C236.036 177.45 237.937 176.948 239.197 176.006C236.817 179.983 234.104 187.125 246.232 186.459C257.331 185.84 257.142 181.417 255.761 178.512C258.523 179.457 262.628 178.134 264.498 181.194C267.904 186.769 237.253 192.654 237.253 192.654Z" fill="black"/>
<path d="M275.313 191.994C275.236 192.222 275.14 192.443 275.025 192.654L270.818 195.866L270.282 196.278L263.263 201.636C263.263 201.636 263.907 202.763 262.988 206.065C262.5 207.738 261.867 209.365 261.096 210.928C260.458 212.271 259.988 213.688 259.697 215.146C259.698 215.168 259.698 215.189 259.697 215.211C259.644 215.481 259.597 215.747 259.56 216.01C259.169 218.643 259.246 221.324 259.786 223.93C259.792 223.965 259.799 224 259.808 224.035C259.957 224.741 260.096 225.221 260.152 225.401L260.18 225.485C260.18 225.485 260.328 225.881 260.551 226.575L260.57 226.637C261.359 229.099 261.945 231.621 262.322 234.179H220.77C221.521 230.234 222.529 226.343 223.788 222.53L223.94 222.078C223.686 222.251 223.439 222.415 223.2 222.564C220.321 224.373 218.411 224.562 217.157 223.865C213.667 221.923 215.271 213.096 215.271 213.096C215.271 213.096 217.943 191.833 218.832 184.136C219.343 179.71 225.881 177.205 231.671 175.842C234.611 175.161 237.593 174.674 240.597 174.386H240.659C240.659 174.386 240.572 174.492 240.427 174.696L240.408 174.721C240.3 174.863 240.16 175.046 240.006 175.269C238.982 176.669 238.132 178.189 237.476 179.794C236.516 182.321 236.352 185.081 239.16 186.484C240.575 187.193 242.743 187.559 245.938 187.382C250.876 187.11 253.582 186.078 254.941 184.765C255.519 184.23 255.911 183.523 256.059 182.749V182.749C256.415 180.866 255.269 178.884 254.474 177.775C254.254 177.469 254.018 177.176 253.768 176.895V176.895L261.885 177.474C265.863 177.736 269.602 179.46 272.384 182.315C272.576 182.51 272.762 182.715 272.941 182.935C276.49 187.051 275.827 190.582 275.313 191.994Z" fill="#FFD6EF"/>
<path opacity="0.05" d="M226.727 191.415C226.727 191.415 227.346 196.371 226.107 197.919C224.869 199.468 224.559 206.592 226.107 210.928L226.727 191.415Z" fill="black"/>
<path d="M248.167 201.943H229.436C228.794 201.943 228.275 202.463 228.275 203.104V209.453C228.275 210.095 228.794 210.615 229.436 210.615H248.167C248.808 210.615 249.328 210.095 249.328 209.453V203.104C249.328 202.463 248.808 201.943 248.167 201.943Z" fill="#CDD0DB"/>
<path opacity="0.05" d="M248.167 201.943H229.436C228.794 201.943 228.275 202.463 228.275 203.104V209.453C228.275 210.095 228.794 210.615 229.436 210.615H248.167C248.808 210.615 249.328 210.095 249.328 209.453V203.104C249.328 202.463 248.808 201.943 248.167 201.943Z" fill="black"/>
<path d="M248.167 202.252H229.436C228.794 202.252 228.275 202.772 228.275 203.414V209.763C228.275 210.404 228.794 210.925 229.436 210.925H248.167C248.808 210.925 249.328 210.404 249.328 209.763V203.414C249.328 202.772 248.808 202.252 248.167 202.252Z" fill="#CDD0DB"/>
<path d="M244.839 207.363C245.352 207.363 245.767 206.947 245.767 206.434C245.767 205.92 245.352 205.504 244.839 205.504C244.326 205.504 243.91 205.92 243.91 206.434C243.91 206.947 244.326 207.363 244.839 207.363Z" fill="#9DA7C0"/>
<path opacity="0.05" d="M219.315 215.679C219.594 214.847 220.052 214.085 220.656 213.449C221.261 212.812 221.997 212.315 222.813 211.993C223.872 211.553 225.163 210.754 225.816 209.295C227.036 206.591 229.203 203.804 234.776 205.662C240.349 207.521 233.228 208.76 233.228 208.76C233.228 208.76 245.922 206.901 240.968 210.618C236.015 214.335 229.823 216.503 229.823 216.503L226.773 219.733C224.915 221.706 221.689 221.697 219.962 219.597C219.188 218.649 218.782 217.373 219.315 215.679Z" fill="black"/>
<path d="M219.005 215.059C219.284 214.227 219.742 213.466 220.347 212.829C220.951 212.193 221.687 211.696 222.504 211.374C223.562 210.934 224.853 210.135 225.507 208.676C226.727 205.972 228.894 203.185 234.467 205.043C240.04 206.901 232.919 208.14 232.919 208.14C232.919 208.14 245.612 206.282 240.659 209.998C235.705 213.715 229.513 215.883 229.513 215.883L226.463 219.114C224.606 221.087 221.38 221.077 219.652 218.977C218.878 218.03 218.472 216.754 219.005 215.059Z" fill="#FFB9B9"/>
<path opacity="0.05" d="M262.641 221.458L260.474 226.724L257.687 224.683L249.947 218.981L244.684 215.574C237.253 209.998 244.684 209.069 244.684 209.069C241.897 207.83 244.684 206.592 244.684 206.592C254.591 204.423 252.734 212.476 252.734 212.476L259.009 215.731L261.093 216.812L262.641 221.458Z" fill="black"/>
<path d="M263.26 220.839L261.093 226.104L258.306 224.063L250.566 218.361L245.303 214.954C237.872 209.379 245.303 208.45 245.303 208.45C242.516 207.211 245.303 205.972 245.303 205.972C255.21 203.804 253.353 211.857 253.353 211.857L259.628 215.112L261.712 216.193L263.26 220.839Z" fill="#FFB9B9"/>
<path opacity="0.05" d="M263.26 220.839L261.093 226.104L258.306 224.063C260.817 224.153 263.783 222.939 259.616 215.112L261.7 216.193L263.26 220.839Z" fill="black"/>
<path d="M274.715 189.557L275.313 191.994L273.477 209.998L271.929 222.078C271.929 222.078 271.31 230.131 264.189 227.962C257.068 225.794 256.449 223.626 256.449 223.626C256.449 223.626 266.666 227.033 260.164 214.954C260.164 214.954 263.879 216.812 263.26 211.857C262.641 206.901 263.26 198.229 263.26 198.229L274.715 189.557Z" fill="#FFD6EF"/>
<path opacity="0.05" d="M262.022 159.823C262.022 162.844 260.996 165.775 259.112 168.135C257.228 170.495 254.598 172.145 251.653 172.813C251.207 171.524 250.891 170.242 251.216 168.938C251.836 166.408 254.764 164.562 254.439 161.976C254.407 161.683 254.301 161.404 254.13 161.164C253.477 160.303 252.145 160.731 251.086 160.944C248.349 161.489 245.352 159.64 244.609 156.949C243.42 158.119 241.931 158.937 240.306 159.314C238.681 159.69 236.984 159.61 235.402 159.083C235.599 155.624 237.136 152.378 239.687 150.034C242.238 147.69 245.601 146.433 249.063 146.529C252.525 146.626 255.814 148.068 258.23 150.55C260.647 153.032 262.001 156.358 262.006 159.823H262.022Z" fill="black"/>
<path d="M244.938 156.329C245.678 159.021 248.678 160.87 251.411 160.322C252.47 160.111 253.802 159.684 254.455 160.545C254.622 160.784 254.723 161.063 254.749 161.353C255.077 163.942 252.158 165.785 251.529 168.319C250.882 170.927 252.768 173.445 253.186 176.099C253.405 177.552 253.186 179.032 253.186 180.5C253.186 181.968 253.532 183.548 254.622 184.527C255.712 185.505 257.718 185.524 258.452 184.248C261.935 186.091 260.545 191.799 263.189 194.72C264.647 196.33 267.047 196.717 269.211 196.513C269.718 196.505 270.21 196.345 270.626 196.055C270.983 195.701 271.225 195.248 271.319 194.754C271.865 192.686 271.771 190.501 271.05 188.488C270.703 187.525 270.205 186.552 270.335 185.539C270.434 184.747 270.907 184.056 271.409 183.433C273.071 181.371 275.341 179.376 275.325 176.725C275.31 174.073 273.013 172.079 272.155 169.601C270.988 166.216 272.607 162.589 273.273 159.07C273.793 156.217 273.685 153.284 272.958 150.475C272.23 147.667 270.9 145.052 269.059 142.81C268.384 141.998 267.601 141.215 266.582 140.893C265.056 140.403 263.43 141.085 261.836 141.283C256.573 141.943 251.802 137.34 246.52 137.752C246.17 137.766 245.825 137.844 245.504 137.984C244.82 138.316 244.452 139.05 244.027 139.682C241.696 143.166 237.114 144.16 233.522 146.322C223.048 152.631 236.913 164.054 244.938 156.329Z" fill="#B0605D"/>
<path d="M308.825 309.563C308.825 309.563 304.342 286.841 313.574 271.268C317.488 264.761 319.186 257.16 318.413 249.606C318.015 246.023 317.29 242.483 316.246 239.032" stroke="#535461" stroke-width="2" stroke-miterlimit="10"/>
<path d="M322.011 229.183C321.763 231.893 316.128 239.305 316.128 239.305C316.128 239.305 311.943 230.992 312.193 228.278C312.24 227.624 312.416 226.986 312.713 226.4C313.009 225.815 313.419 225.295 313.919 224.87C314.419 224.445 314.998 224.125 315.624 223.927C316.249 223.729 316.907 223.658 317.56 223.718C318.213 223.778 318.848 223.968 319.427 224.276C320.006 224.585 320.517 225.005 320.931 225.514C321.345 226.023 321.654 226.609 321.839 227.238C322.024 227.868 322.081 228.528 322.008 229.18L322.011 229.183Z" fill="#6C63FF"/>
<path d="M328.745 244.945C327.064 247.085 318.311 250.247 318.311 250.247C318.311 250.247 319.314 240.993 320.995 238.852C321.823 237.888 322.991 237.281 324.256 237.158C325.52 237.034 326.784 237.404 327.782 238.19C328.781 238.976 329.437 240.117 329.615 241.376C329.792 242.634 329.477 243.913 328.735 244.945H328.745Z" fill="#6C63FF"/>
<path d="M326.033 270.577C323.5 271.575 314.351 269.884 314.351 269.884C314.351 269.884 319.887 262.401 322.42 261.403C323.631 260.948 324.972 260.987 326.155 261.513C327.337 262.038 328.265 263.007 328.74 264.212C329.214 265.416 329.196 266.758 328.69 267.949C328.183 269.14 327.229 270.084 326.033 270.577V270.577Z" fill="#6C63FF"/>
<path d="M319.618 289.511C317.29 290.923 307.986 290.802 307.986 290.802C307.986 290.802 312.178 282.493 314.506 281.08C315.06 280.732 315.677 280.497 316.322 280.389C316.968 280.282 317.628 280.304 318.265 280.455C318.901 280.605 319.501 280.881 320.03 281.265C320.56 281.65 321.007 282.137 321.346 282.696C321.685 283.256 321.91 283.877 322.006 284.524C322.103 285.172 322.07 285.832 321.909 286.466C321.748 287.1 321.463 287.696 321.069 288.219C320.676 288.742 320.183 289.181 319.618 289.511V289.511Z" fill="#6C63FF"/>
<path d="M307.958 249.826C309.729 251.895 318.605 254.682 318.605 254.682C318.605 254.682 317.212 245.477 315.444 243.412C315.026 242.909 314.513 242.495 313.934 242.193C313.355 241.891 312.721 241.707 312.07 241.652C311.419 241.597 310.764 241.672 310.142 241.872C309.52 242.073 308.945 242.395 308.449 242.82C307.953 243.245 307.546 243.765 307.252 244.348C306.959 244.932 306.784 245.568 306.738 246.22C306.692 246.872 306.777 247.527 306.986 248.146C307.196 248.765 307.526 249.336 307.958 249.826V249.826Z" fill="#6C63FF"/>
<path d="M300.735 272.061C303.041 273.504 312.348 273.508 312.348 273.508C312.348 273.508 308.267 265.145 305.958 263.699C305.409 263.345 304.795 263.104 304.152 262.99C303.509 262.875 302.85 262.89 302.213 263.032C301.576 263.175 300.973 263.443 300.441 263.82C299.908 264.198 299.455 264.677 299.109 265.231C298.763 265.785 298.531 266.403 298.425 267.047C298.32 267.692 298.343 268.351 298.494 268.986C298.646 269.622 298.922 270.221 299.306 270.749C299.691 271.276 300.176 271.723 300.735 272.061V272.061Z" fill="#6C63FF"/>
<path d="M296.676 294.64C298.707 296.452 307.877 298.032 307.877 298.032C307.877 298.032 305.267 289.096 303.233 287.284C302.752 286.842 302.188 286.499 301.573 286.277C300.959 286.055 300.306 285.957 299.653 285.989C299 286.022 298.361 286.183 297.771 286.466C297.181 286.748 296.654 287.144 296.219 287.632C295.784 288.12 295.45 288.69 295.237 289.308C295.024 289.926 294.936 290.58 294.979 291.233C295.021 291.885 295.192 292.523 295.483 293.108C295.774 293.694 296.178 294.215 296.673 294.643L296.676 294.64Z" fill="#6C63FF"/>
<path d="M230.724 116.75C230.724 113.64 229.489 110.657 227.291 108.458C225.092 106.259 222.111 105.023 219.002 105.023H155.136C152.028 105.023 149.046 106.259 146.848 108.458C144.65 110.657 143.415 113.64 143.415 116.75C143.415 119.86 144.65 122.842 146.848 125.041C149.046 127.24 152.028 128.476 155.136 128.476L208.534 128.374L220.816 139.093V128.318C223.575 127.887 226.089 126.485 227.906 124.364C229.722 122.243 230.722 119.543 230.724 116.75Z" fill="#6C63FF"/>
<path d="M241.253 250.284H209.054V259.886H241.253V250.284Z" fill="#6C63FF"/>
<path opacity="0.1" d="M284.288 250.284H252.089V259.886H284.288V250.284Z" fill="#6C63FF"/>
<path d="M112.98 346.069H121.08V374.469H138.63V381.069H112.98V346.069ZM142.606 354.169H150.406V381.069H142.606V354.169ZM146.506 350.419C145.073 350.419 143.906 350.003 143.006 349.169C142.106 348.336 141.656 347.303 141.656 346.069C141.656 344.836 142.106 343.803 143.006 342.969C143.906 342.136 145.073 341.719 146.506 341.719C147.939 341.719 149.106 342.119 150.006 342.919C150.906 343.719 151.356 344.719 151.356 345.919C151.356 347.219 150.906 348.303 150.006 349.169C149.106 350.003 147.939 350.419 146.506 350.419ZM173.545 353.769C176.045 353.769 178.312 354.353 180.345 355.519C182.412 356.653 184.028 358.269 185.195 360.369C186.362 362.436 186.945 364.853 186.945 367.619C186.945 370.386 186.362 372.819 185.195 374.919C184.028 376.986 182.412 378.603 180.345 379.769C178.312 380.903 176.045 381.469 173.545 381.469C169.845 381.469 167.028 380.303 165.095 377.969V381.069H157.645V343.969H165.445V357.019C167.412 354.853 170.112 353.769 173.545 353.769ZM172.195 375.069C174.195 375.069 175.828 374.403 177.095 373.069C178.395 371.703 179.045 369.886 179.045 367.619C179.045 365.353 178.395 363.553 177.095 362.219C175.828 360.853 174.195 360.169 172.195 360.169C170.195 360.169 168.545 360.853 167.245 362.219C165.978 363.553 165.345 365.353 165.345 367.619C165.345 369.886 165.978 371.703 167.245 373.069C168.545 374.403 170.195 375.069 172.195 375.069ZM199.616 357.719C200.55 356.419 201.8 355.436 203.366 354.769C204.966 354.103 206.8 353.769 208.866 353.769V360.969C208 360.903 207.416 360.869 207.116 360.869C204.883 360.869 203.133 361.503 201.866 362.769C200.6 364.003 199.966 365.869 199.966 368.369V381.069H192.166V354.169H199.616V357.719ZM224.208 353.769C228.375 353.769 231.575 354.769 233.808 356.769C236.041 358.736 237.158 361.719 237.158 365.719V381.069H229.858V377.719C228.391 380.219 225.658 381.469 221.658 381.469C219.591 381.469 217.791 381.119 216.258 380.419C214.758 379.719 213.608 378.753 212.808 377.519C212.008 376.286 211.608 374.886 211.608 373.319C211.608 370.819 212.541 368.853 214.408 367.419C216.308 365.986 219.225 365.269 223.158 365.269H229.358C229.358 363.569 228.841 362.269 227.808 361.369C226.775 360.436 225.225 359.969 223.158 359.969C221.725 359.969 220.308 360.203 218.908 360.669C217.541 361.103 216.375 361.703 215.408 362.469L212.608 357.019C214.075 355.986 215.825 355.186 217.858 354.619C219.925 354.053 222.041 353.769 224.208 353.769ZM223.608 376.219C224.941 376.219 226.125 375.919 227.158 375.319C228.191 374.686 228.925 373.769 229.358 372.569V369.819H224.008C220.808 369.819 219.208 370.869 219.208 372.969C219.208 373.969 219.591 374.769 220.358 375.369C221.158 375.936 222.241 376.219 223.608 376.219ZM253.267 381.469C251.034 381.469 248.851 381.203 246.717 380.669C244.584 380.103 242.884 379.403 241.617 378.569L244.217 372.969C245.417 373.736 246.867 374.369 248.567 374.869C250.267 375.336 251.934 375.569 253.567 375.569C256.867 375.569 258.517 374.753 258.517 373.119C258.517 372.353 258.067 371.803 257.167 371.469C256.267 371.136 254.884 370.853 253.017 370.619C250.817 370.286 249.001 369.903 247.567 369.469C246.134 369.036 244.884 368.269 243.817 367.169C242.784 366.069 242.267 364.503 242.267 362.469C242.267 360.769 242.751 359.269 243.717 357.969C244.717 356.636 246.151 355.603 248.017 354.869C249.917 354.136 252.151 353.769 254.717 353.769C256.617 353.769 258.501 353.986 260.367 354.419C262.267 354.819 263.834 355.386 265.067 356.119L262.467 361.669C260.101 360.336 257.517 359.669 254.717 359.669C253.051 359.669 251.801 359.903 250.967 360.369C250.134 360.836 249.717 361.436 249.717 362.169C249.717 363.003 250.167 363.586 251.067 363.919C251.967 364.253 253.401 364.569 255.367 364.869C257.567 365.236 259.367 365.636 260.767 366.069C262.167 366.469 263.384 367.219 264.417 368.319C265.451 369.419 265.967 370.953 265.967 372.919C265.967 374.586 265.467 376.069 264.467 377.369C263.467 378.669 262.001 379.686 260.067 380.419C258.167 381.119 255.901 381.469 253.267 381.469ZM303.18 381.069L303.13 360.069L292.83 377.369H289.18L278.93 360.519V381.069H271.33V346.069H278.03L291.13 367.819L304.03 346.069H310.68L310.78 381.069H303.18ZM329.384 353.769C333.55 353.769 336.75 354.769 338.984 356.769C341.217 358.736 342.334 361.719 342.334 365.719V381.069H335.034V377.719C333.567 380.219 330.834 381.469 326.834 381.469C324.767 381.469 322.967 381.119 321.434 380.419C319.934 379.719 318.784 378.753 317.984 377.519C317.184 376.286 316.784 374.886 316.784 373.319C316.784 370.819 317.717 368.853 319.584 367.419C321.484 365.986 324.4 365.269 328.334 365.269H334.534C334.534 363.569 334.017 362.269 332.984 361.369C331.95 360.436 330.4 359.969 328.334 359.969C326.9 359.969 325.484 360.203 324.084 360.669C322.717 361.103 321.55 361.703 320.584 362.469L317.784 357.019C319.25 355.986 321 355.186 323.034 354.619C325.1 354.053 327.217 353.769 329.384 353.769ZM328.784 376.219C330.117 376.219 331.3 375.919 332.334 375.319C333.367 374.686 334.1 373.769 334.534 372.569V369.819H329.184C325.984 369.819 324.384 370.869 324.384 372.969C324.384 373.969 324.767 374.769 325.534 375.369C326.334 375.936 327.417 376.219 328.784 376.219ZM366.743 379.769C365.976 380.336 365.026 380.769 363.893 381.069C362.793 381.336 361.626 381.469 360.393 381.469C357.193 381.469 354.71 380.653 352.943 379.019C351.21 377.386 350.343 374.986 350.343 371.819V360.769H346.193V354.769H350.343V348.219H358.143V354.769H364.843V360.769H358.143V371.719C358.143 372.853 358.426 373.736 358.993 374.369C359.593 374.969 360.426 375.269 361.493 375.269C362.726 375.269 363.776 374.936 364.643 374.269L366.743 379.769ZM387.472 353.769C390.805 353.769 393.488 354.769 395.522 356.769C397.588 358.769 398.622 361.736 398.622 365.669V381.069H390.822V366.869C390.822 364.736 390.355 363.153 389.422 362.119C388.488 361.053 387.138 360.519 385.372 360.519C383.405 360.519 381.838 361.136 380.672 362.369C379.505 363.569 378.922 365.369 378.922 367.769V381.069H371.122V343.969H378.922V356.969C379.955 355.936 381.205 355.153 382.672 354.619C384.138 354.053 385.738 353.769 387.472 353.769Z" fill="white"/>
<rect width="512" height="512" rx="15" fill="url(#paint2_linear)"/>
<defs>
<linearGradient id="paint0_linear" x1="246.826" y1="313.025" x2="246.826" y2="81.6176" gradientUnits="userSpaceOnUse">
<stop stop-color="#808080" stop-opacity="0.25"/>
<stop offset="0.54" stop-color="#808080" stop-opacity="0.12"/>
<stop offset="1" stop-color="#808080" stop-opacity="0.1"/>
</linearGradient>
<linearGradient id="paint1_linear" x1="35881.4" y1="56444.5" x2="35881.4" y2="25794.4" gradientUnits="userSpaceOnUse">
<stop stop-color="#808080" stop-opacity="0.25"/>
<stop offset="0.54" stop-color="#808080" stop-opacity="0.12"/>
<stop offset="1" stop-color="#808080" stop-opacity="0.1"/>
</linearGradient>
<linearGradient id="paint2_linear" x1="675.84" y1="448.943" x2="239.832" y2="316.901" gradientUnits="userSpaceOnUse">
<stop stop-color="white"/>
<stop offset="1" stop-color="white" stop-opacity="0"/>
</linearGradient>
</defs>
</svg>
