<svg width="19" height="19" viewBox="0 0 19 19" fill="none" xmlns="http://www.w3.org/2000/svg">
<path fill-rule="evenodd" clip-rule="evenodd" d="M0 9.5C0 4.25506 4.25506 0 9.5 0C14.7449 0 19 4.25506 19 9.5C19 14.7449 14.7449 19 9.5 19C4.25506 19 0 14.7449 0 9.5ZM9.5 1.46154C5.06225 1.46154 1.46154 5.06225 1.46154 9.5C1.46154 13.9378 5.06225 17.5385 9.5 17.5385C13.9378 17.5385 17.5385 13.9378 17.5385 9.5C17.5385 5.06225 13.9378 1.46154 9.5 1.46154Z" fill="white"/>
<path d="M15.8381 9.07524L10.6108 5.9174C10.5358 5.87252 10.4503 5.84837 10.363 5.84743C10.2756 5.8465 10.1896 5.86882 10.1138 5.9121C10.0379 5.95538 9.97491 6.01806 9.93126 6.09372C9.88761 6.16937 9.86488 6.25528 9.86538 6.34262V8.77791L5.13 5.9174C5.05507 5.87252 4.96956 5.84837 4.88222 5.84743C4.79488 5.8465 4.70886 5.86882 4.633 5.9121C4.55713 5.95538 4.49414 6.01806 4.45049 6.09372C4.40685 6.16937 4.38411 6.25528 4.38462 6.34262V12.6574C4.38411 12.7447 4.40685 12.8306 4.45049 12.9063C4.49414 12.9819 4.55713 13.0446 4.633 13.0879C4.70886 13.1312 4.79488 13.1535 4.88222 13.1526C4.96956 13.1516 5.05507 13.1275 5.13 13.0826L9.86538 10.2221V12.6574C9.86488 12.7447 9.88761 12.8306 9.93126 12.9063C9.97491 12.9819 10.0379 13.0446 10.1138 13.0879C10.1896 13.1312 10.2756 13.1535 10.363 13.1526C10.4503 13.1516 10.5358 13.1275 10.6108 13.0826L15.8381 9.92476C15.9109 9.88037 15.9711 9.81798 16.0129 9.74359C16.0547 9.66921 16.0767 9.58532 16.0767 9.5C16.0767 9.41468 16.0547 9.33079 16.0129 9.25641C15.9711 9.18202 15.9109 9.11963 15.8381 9.07524Z" fill="white"/>
</svg>
