<svg width="28" height="28" viewBox="0 0 28 28" fill="none" xmlns="http://www.w3.org/2000/svg">
<path fill-rule="evenodd" clip-rule="evenodd" d="M7.55227 5.40594C8.08546 5.25571 8.63679 5.18087 9.19043 5.18356C9.91051 5.18394 10.5764 5.3731 11.1917 5.54788C11.2923 5.57645 11.3916 5.60464 11.4895 5.63156C12.2143 5.83085 13.0324 6.02051 14.1726 6.02051C15.3127 6.02051 16.1303 5.83086 16.8549 5.63158C16.9526 5.60471 17.0516 5.57658 17.152 5.54806C17.7675 5.37319 18.4336 5.18392 19.1549 5.18356C19.6925 5.18106 20.2276 5.25682 20.7437 5.4085L20.7451 5.40892L20.7466 5.40934C22.1547 5.82873 23.2235 6.88216 24.0456 8.31708C24.8641 9.74596 25.4798 11.6222 25.9654 13.8342C26.4636 16.1025 26.7414 18.1803 26.5941 19.8175C26.4482 21.4402 25.8448 22.9122 24.3102 23.4403L24.3098 23.4404C23.3686 23.7637 22.4757 23.5579 21.7056 23.1068C20.957 22.6683 20.283 21.9781 19.6856 21.2283C19.1226 20.5215 18.5403 20.0901 17.7448 19.8177C16.9141 19.5331 15.809 19.4071 14.1726 19.4071C12.5368 19.4071 11.414 19.533 10.5658 19.8189C9.75159 20.0934 9.15719 20.5269 8.59978 21.2277L8.59894 21.2288C8.00651 21.9712 7.34358 22.6666 6.60005 23.1073C5.82815 23.5649 4.93514 23.7641 3.97938 23.4308L3.97893 23.4306C2.53489 22.9261 1.94277 21.4262 1.7719 19.8301C1.5956 18.1833 1.81768 16.0939 2.31999 13.8323L2.32001 13.8322C2.81091 11.6229 3.42617 9.74729 4.24306 8.31865C5.06353 6.88375 6.13019 5.8288 7.5408 5.40926L7.54652 5.40755L7.55227 5.40594ZM8.00559 7.01635C7.14435 7.27442 6.37332 7.94644 5.68271 9.15423C4.98703 10.3709 4.41669 12.0586 3.94135 14.1978M8.00559 7.01635C8.38921 6.90886 8.78575 6.85538 9.18394 6.85746L9.18609 6.85747H9.18824C9.66275 6.85747 10.085 6.97587 10.7121 7.15175C10.8191 7.18174 10.932 7.2134 11.0521 7.24642C11.8493 7.46561 12.8263 7.69443 14.1726 7.69443C15.519 7.69443 16.4955 7.4656 17.2925 7.2464C17.4121 7.21349 17.5246 7.18193 17.6312 7.15203C18.2587 6.97602 18.6813 6.85747 19.157 6.85747H19.1591L19.1611 6.85746C19.5387 6.85556 19.9145 6.90863 20.277 7.01501C21.1393 7.27231 21.9139 7.94476 22.6066 9.15383C23.3031 10.3696 23.8735 12.0567 24.3432 14.1958L24.3432 14.1958C24.832 16.4215 25.0629 18.2939 24.9395 19.6665C24.8147 21.0537 24.3683 21.6514 23.7732 21.8562C23.4003 21.9841 23.0104 21.9349 22.5407 21.6597C22.0493 21.3719 21.5263 20.8645 20.9814 20.1805C20.2443 19.2553 19.4084 18.6195 18.2796 18.2328C17.186 17.8583 15.8607 17.7332 14.1726 17.7332C12.4839 17.7332 11.1452 17.8584 10.0385 18.2316C8.89799 18.6161 8.04419 19.2496 7.3037 20.1804C6.75297 20.8705 6.24079 21.3781 5.75754 21.6646C5.30256 21.9343 4.91703 21.9864 4.52286 21.8489C4.03873 21.6795 3.57762 21.0877 3.42378 19.6506C3.27532 18.2639 3.45717 16.3778 3.94134 14.1979" fill="white"/>
<path d="M16.0418 13.7624C16.6153 13.7624 17.0802 13.294 17.0802 12.7162C17.0802 12.1384 16.6153 11.67 16.0418 11.67C15.4683 11.67 15.0033 12.1384 15.0033 12.7162C15.0033 13.294 15.4683 13.7624 16.0418 13.7624Z" fill="white"/>
<path d="M18.3263 16.064C18.1208 16.064 17.9199 16.0026 17.7491 15.8875C17.5783 15.7724 17.4452 15.6089 17.3667 15.4176C17.2881 15.2262 17.2677 15.0157 17.308 14.8127C17.3483 14.6097 17.4474 14.4233 17.5929 14.2771C17.7384 14.1309 17.9237 14.0315 18.1253 13.9914C18.3269 13.9513 18.5358 13.9724 18.7255 14.052C18.9151 14.1316 19.0771 14.2661 19.1909 14.4385C19.3047 14.6109 19.3652 14.8134 19.3647 15.0204C19.364 15.2974 19.2543 15.5629 19.0596 15.7585C18.865 15.9541 18.6012 16.064 18.3263 16.064Z" fill="white"/>
<path d="M18.3263 11.4607C18.8998 11.4607 19.3647 10.9923 19.3647 10.4145C19.3647 9.83674 18.8998 9.36835 18.3263 9.36835C17.7528 9.36835 17.2878 9.83674 17.2878 10.4145C17.2878 10.9923 17.7528 11.4607 18.3263 11.4607Z" fill="white"/>
<path d="M20.6108 13.7624C21.1843 13.7624 21.6492 13.294 21.6492 12.7162C21.6492 12.1384 21.1843 11.67 20.6108 11.67C20.0373 11.67 19.5724 12.1384 19.5724 12.7162C19.5724 13.294 20.0373 13.7624 20.6108 13.7624Z" fill="white"/>
<path fill-rule="evenodd" clip-rule="evenodd" d="M9.18824 9.36835C9.64704 9.36835 10.019 9.74307 10.019 10.2053V15.227C10.019 15.6893 9.64704 16.064 9.18824 16.064C8.72944 16.064 8.35751 15.6893 8.35751 15.227V10.2053C8.35751 9.74307 8.72944 9.36835 9.18824 9.36835Z" fill="white"/>
<path fill-rule="evenodd" clip-rule="evenodd" d="M5.86533 12.7162C5.86533 12.2539 6.23726 11.8792 6.69606 11.8792H11.6804C12.1392 11.8792 12.5112 12.2539 12.5112 12.7162C12.5112 13.1784 12.1392 13.5531 11.6804 13.5531H6.69606C6.23726 13.5531 5.86533 13.1784 5.86533 12.7162Z" fill="white"/>
</svg>
