<svg width="13" height="12" viewBox="0 0 13 12" fill="none" xmlns="http://www.w3.org/2000/svg">
<path fill-rule="evenodd" clip-rule="evenodd" d="M6.25896 4.29098e-06C7.10567 -0.000967686 7.94374 0.163197 8.72218 0.48251C9.50071 0.801862 10.2033 1.26972 10.7872 1.85762L10.7957 1.86611L11.4392 2.58376C11.6125 2.77706 11.5896 3.06846 11.3879 3.23462C11.1863 3.40078 10.8823 3.37878 10.7089 3.18548L10.0815 2.48582C9.58935 1.99251 8.99809 1.59973 8.34333 1.33115C7.68491 1.06107 6.97604 0.922225 6.25986 0.92308L6.25956 0.923081H6.25926C3.33536 0.923081 0.962963 3.19721 0.962963 6C0.962963 8.80278 3.33534 11.0769 6.25923 11.0769M6.25896 4.29098e-06C2.80337 0.000159859 0 2.68751 0 6C0 9.31259 2.80353 12 6.25926 12H6.25929C7.55381 11.9999 8.81648 11.6153 9.87354 10.899C10.9306 10.1827 11.7301 9.16993 12.162 8.00014C12.2507 7.75985 12.1194 7.49611 11.8688 7.41106C11.6181 7.32602 11.343 7.45187 11.2542 7.69216C10.8887 8.68206 10.2122 9.53905 9.31768 10.1452C8.42318 10.7513 7.35469 11.0768 6.25926 11.0769" fill="white"/>
<path d="M13 1.42558V4.61539C13 4.7378 12.9493 4.85519 12.859 4.94174C12.7687 5.0283 12.6462 5.07693 12.5185 5.07693H9.19088C8.76176 5.07693 8.5469 4.57991 8.85023 4.28914L12.1782 1.09904C12.4815 0.807696 13 1.01423 13 1.42558Z" fill="white"/>
</svg>
