<svg width="65" height="60" viewBox="0 0 65 60" fill="none" xmlns="http://www.w3.org/2000/svg">
<path d="M1.15421 49.3H2.93621V55.548H6.79721V57H1.15421V49.3ZM7.67188 51.082H9.38788V57H7.67188V51.082ZM8.52988 50.257C8.21455 50.257 7.95788 50.1653 7.75988 49.982C7.56188 49.7987 7.46288 49.5713 7.46288 49.3C7.46288 49.0287 7.56188 48.8013 7.75988 48.618C7.95788 48.4347 8.21455 48.343 8.52988 48.343C8.84522 48.343 9.10188 48.431 9.29988 48.607C9.49788 48.783 9.59688 49.003 9.59688 49.267C9.59688 49.553 9.49788 49.7913 9.29988 49.982C9.10188 50.1653 8.84522 50.257 8.52988 50.257ZM14.4785 50.994C15.0285 50.994 15.5271 51.1223 15.9745 51.379C16.4291 51.6283 16.7848 51.984 17.0415 52.446C17.2981 52.9007 17.4265 53.4323 17.4265 54.041C17.4265 54.6497 17.2981 55.185 17.0415 55.647C16.7848 56.1017 16.4291 56.4573 15.9745 56.714C15.5271 56.9633 15.0285 57.088 14.4785 57.088C13.6645 57.088 13.0448 56.8313 12.6195 56.318V57H10.9805V48.838H12.6965V51.709C13.1291 51.2323 13.7231 50.994 14.4785 50.994ZM14.1815 55.68C14.6215 55.68 14.9808 55.5333 15.2595 55.24C15.5455 54.9393 15.6885 54.5397 15.6885 54.041C15.6885 53.5423 15.5455 53.1463 15.2595 52.853C14.9808 52.5523 14.6215 52.402 14.1815 52.402C13.7415 52.402 13.3785 52.5523 13.0925 52.853C12.8138 53.1463 12.6745 53.5423 12.6745 54.041C12.6745 54.5397 12.8138 54.9393 13.0925 55.24C13.3785 55.5333 13.7415 55.68 14.1815 55.68ZM20.2142 51.863C20.4195 51.577 20.6945 51.3607 21.0392 51.214C21.3912 51.0673 21.7945 50.994 22.2492 50.994V52.578C22.0585 52.5633 21.9302 52.556 21.8642 52.556C21.3729 52.556 20.9879 52.6953 20.7092 52.974C20.4305 53.2453 20.2912 53.656 20.2912 54.206V57H18.5752V51.082H20.2142V51.863ZM25.6243 50.994C26.541 50.994 27.245 51.214 27.7363 51.654C28.2276 52.0867 28.4733 52.743 28.4733 53.623V57H26.8673V56.263C26.5446 56.813 25.9433 57.088 25.0633 57.088C24.6086 57.088 24.2126 57.011 23.8753 56.857C23.5453 56.703 23.2923 56.4903 23.1163 56.219C22.9403 55.9477 22.8523 55.6397 22.8523 55.295C22.8523 54.745 23.0576 54.3123 23.4683 53.997C23.8863 53.6817 24.528 53.524 25.3933 53.524H26.7573C26.7573 53.15 26.6436 52.864 26.4163 52.666C26.189 52.4607 25.848 52.358 25.3933 52.358C25.078 52.358 24.7663 52.4093 24.4583 52.512C24.1576 52.6073 23.901 52.7393 23.6883 52.908L23.0723 51.709C23.395 51.4817 23.78 51.3057 24.2273 51.181C24.682 51.0563 25.1476 50.994 25.6243 50.994ZM25.4923 55.933C25.7856 55.933 26.046 55.867 26.2733 55.735C26.5006 55.5957 26.662 55.394 26.7573 55.13V54.525H25.5803C24.8763 54.525 24.5243 54.756 24.5243 55.218C24.5243 55.438 24.6086 55.614 24.7773 55.746C24.9533 55.8707 25.1916 55.933 25.4923 55.933ZM32.0174 57.088C31.526 57.088 31.0457 57.0293 30.5764 56.912C30.107 56.7873 29.733 56.6333 29.4544 56.45L30.0264 55.218C30.2904 55.3867 30.6094 55.526 30.9834 55.636C31.3574 55.7387 31.724 55.79 32.0834 55.79C32.8094 55.79 33.1724 55.6103 33.1724 55.251C33.1724 55.0823 33.0734 54.9613 32.8754 54.888C32.6774 54.8147 32.373 54.7523 31.9624 54.701C31.4784 54.6277 31.0787 54.5433 30.7634 54.448C30.448 54.3527 30.173 54.184 29.9384 53.942C29.711 53.7 29.5974 53.3553 29.5974 52.908C29.5974 52.534 29.7037 52.204 29.9164 51.918C30.1364 51.6247 30.4517 51.3973 30.8624 51.236C31.2804 51.0747 31.7717 50.994 32.3364 50.994C32.7544 50.994 33.1687 51.0417 33.5794 51.137C33.9974 51.225 34.342 51.3497 34.6134 51.511L34.0414 52.732C33.5207 52.4387 32.9524 52.292 32.3364 52.292C31.9697 52.292 31.6947 52.3433 31.5114 52.446C31.328 52.5487 31.2364 52.6807 31.2364 52.842C31.2364 53.0253 31.3354 53.1537 31.5334 53.227C31.7314 53.3003 32.0467 53.37 32.4794 53.436C32.9634 53.5167 33.3594 53.6047 33.6674 53.7C33.9754 53.788 34.243 53.953 34.4704 54.195C34.6977 54.437 34.8114 54.7743 34.8114 55.207C34.8114 55.5737 34.7014 55.9 34.4814 56.186C34.2614 56.472 33.9387 56.6957 33.5134 56.857C33.0954 57.011 32.5967 57.088 32.0174 57.088ZM42.9981 57L42.9871 52.38L40.7211 56.186H39.9181L37.6631 52.479V57H35.9911V49.3H37.4651L40.3471 54.085L43.1851 49.3H44.6481L44.6701 57H42.9981ZM48.763 50.994C49.6797 50.994 50.3837 51.214 50.875 51.654C51.3663 52.0867 51.612 52.743 51.612 53.623V57H50.006V56.263C49.6833 56.813 49.082 57.088 48.202 57.088C47.7473 57.088 47.3513 57.011 47.014 56.857C46.684 56.703 46.431 56.4903 46.255 56.219C46.079 55.9477 45.991 55.6397 45.991 55.295C45.991 54.745 46.1963 54.3123 46.607 53.997C47.025 53.6817 47.6667 53.524 48.532 53.524H49.896C49.896 53.15 49.7823 52.864 49.555 52.666C49.3277 52.4607 48.9867 52.358 48.532 52.358C48.2167 52.358 47.905 52.4093 47.597 52.512C47.2963 52.6073 47.0397 52.7393 46.827 52.908L46.211 51.709C46.5337 51.4817 46.9187 51.3057 47.366 51.181C47.8207 51.0563 48.2863 50.994 48.763 50.994ZM48.631 55.933C48.9243 55.933 49.1847 55.867 49.412 55.735C49.6393 55.5957 49.8007 55.394 49.896 55.13V54.525H48.719C48.015 54.525 47.663 54.756 47.663 55.218C47.663 55.438 47.7473 55.614 47.916 55.746C48.092 55.8707 48.3303 55.933 48.631 55.933ZM56.982 56.714C56.8134 56.8387 56.6044 56.934 56.355 57C56.113 57.0587 55.8564 57.088 55.585 57.088C54.881 57.088 54.3347 56.9083 53.946 56.549C53.5647 56.1897 53.374 55.6617 53.374 54.965V52.534H52.461V51.214H53.374V49.773H55.09V51.214H56.564V52.534H55.09V54.943C55.09 55.1923 55.1524 55.3867 55.277 55.526C55.409 55.658 55.5924 55.724 55.827 55.724C56.0984 55.724 56.3294 55.6507 56.52 55.504L56.982 56.714ZM61.5423 50.994C62.2757 50.994 62.866 51.214 63.3133 51.654C63.768 52.094 63.9953 52.7467 63.9953 53.612V57H62.2793V53.876C62.2793 53.4067 62.1767 53.0583 61.9713 52.831C61.766 52.5963 61.469 52.479 61.0803 52.479C60.6477 52.479 60.303 52.6147 60.0463 52.886C59.7897 53.15 59.6613 53.546 59.6613 54.074V57H57.9453V48.838H59.6613V51.698C59.8887 51.4707 60.1637 51.2983 60.4863 51.181C60.809 51.0563 61.161 50.994 61.5423 50.994Z" fill="#414141"/>
<path opacity="0.1" d="M30.9261 3.37749C29.1718 3.167 27.5309 2.52046 25.8749 1.97376C24.0331 1.36873 22.1542 0.883021 20.2499 0.51965C18.2212 0.131636 16.1298 -0.121232 14.0959 0.05959C12.0619 0.240412 10.0774 0.890712 8.78013 2.07971C6.58239 4.09654 6.76785 7.15356 7.49368 9.84799C8.35508 13.0449 9.84441 16.205 12.2822 18.9277C14.0149 20.8631 16.1891 22.5385 18.344 24.2017C19.5622 25.1402 20.7917 26.0852 22.2147 26.8231C23.5383 27.5087 24.9999 28.0004 26.4511 28.4849C28.0006 29.0029 29.554 29.5237 31.1539 29.9197C36.2607 31.1836 41.6366 31.144 46.8931 31.0315C48.7429 30.9924 50.6766 30.9279 52.2286 30.2051C53.4378 29.64 54.2997 28.7246 54.9525 27.7484C55.8069 26.4695 56.3463 24.9433 55.7396 23.517C54.8452 21.4131 51.78 20.1737 50.7595 18.1018C49.4518 15.4431 51.9918 12.6328 51.273 9.86542C50.9741 8.71409 50.1311 7.67342 49.2377 6.70292C47.1068 4.38896 44.2745 2.28125 40.4679 2.58921C37.2449 2.84915 34.3053 3.78339 30.9261 3.37749Z" fill="#6C63FF"/>
<path d="M23.0666 2.08443H37.7999C38.186 2.08442 38.5565 2.23757 38.83 2.51031C39.1035 2.78306 39.2578 3.15314 39.2591 3.53948V35.8115C39.2578 36.1978 39.1035 36.5679 38.83 36.8407C38.5565 37.1134 38.186 37.2666 37.7999 37.2666H23.0666C22.6804 37.2666 22.31 37.1134 22.0365 36.8407C21.763 36.5679 21.6087 36.1978 21.6074 35.8115V3.53901C21.6088 3.15275 21.7631 2.78279 22.0366 2.51015C22.3101 2.23751 22.6805 2.08442 23.0666 2.08443V2.08443Z" fill="url(#paint0_linear)"/>
<path d="M23.0064 37.1319H37.8592C38.5577 37.1319 39.124 36.5654 39.124 35.8666L39.124 3.61908C39.124 2.92028 38.5577 2.3538 37.8592 2.3538H23.0064C22.3078 2.3538 21.7416 2.92028 21.7416 3.61908L21.7416 35.8666C21.7416 36.5654 22.3078 37.1319 23.0064 37.1319Z" fill="#4E5A86"/>
<path d="M23.0214 33.8969H37.8436V5.58926L23.0214 5.58926L23.0214 33.8969Z" fill="white"/>
<path d="M30.5001 36.1882C31.0211 36.1882 31.4434 35.7657 31.4434 35.2446C31.4434 34.7234 31.0211 34.3009 30.5001 34.3009C29.9791 34.3009 29.5568 34.7234 29.5568 35.2446C29.5568 35.7657 29.9791 36.1882 30.5001 36.1882Z" fill="white"/>
<path opacity="0.1" d="M29.7267 38.5111C36.3298 38.5111 41.6827 37.4781 41.6827 36.2038C41.6827 34.9294 36.3298 33.8964 29.7267 33.8964C23.1236 33.8964 17.7707 34.9294 17.7707 36.2038C17.7707 37.4781 23.1236 38.5111 29.7267 38.5111Z" fill="#6C63FF"/>
<path opacity="0.1" d="M36.1519 9.97514H24.7137V25.2791H36.1519V9.97514Z" fill="#6C63FF"/>
<path d="M34.5077 17.394C34.4795 17.362 34.4508 17.3309 34.4211 17.2998C34.6485 17.0418 34.8843 16.7767 34.8819 16.4452C34.8796 16.0416 34.5218 15.7323 34.3881 15.3508C34.2065 14.8328 34.4588 14.2763 34.5623 13.7371C34.6431 13.2989 34.6262 12.8482 34.5128 12.4173C34.3993 11.9863 34.1922 11.5858 33.9061 11.2442C33.8012 11.1199 33.6793 10.9998 33.5225 10.9508C33.2848 10.8755 33.0316 10.98 32.784 11.0106C31.9654 11.1114 31.2207 10.406 30.3984 10.4691C30.3439 10.4712 30.2903 10.4833 30.2402 10.5049C30.1339 10.5557 30.0764 10.6678 30.0105 10.7648C29.7549 11.1415 29.3261 11.3299 28.8992 11.5182C28.8457 11.5343 28.7946 11.5577 28.7476 11.5879C28.6196 11.6477 28.4934 11.7099 28.3744 11.7805C27.7813 12.1365 27.6871 12.5928 27.8721 12.9733C27.9425 13.1136 28.0405 13.2382 28.1602 13.3397C28.1557 13.3627 28.15 13.3855 28.1432 13.4079C28.0223 13.843 27.5986 14.2334 27.6758 14.6859C27.6928 14.774 27.7246 14.8586 27.77 14.936V14.936C27.8956 15.1634 28.1037 15.3598 28.1837 15.6065C28.192 15.6315 28.1987 15.657 28.204 15.6828C28.2473 15.8985 28.1785 16.1038 28.0839 16.3077C27.182 16.5163 26.1634 16.9005 26.0843 17.5791C25.946 18.7591 25.5298 22.0186 25.5298 22.0186C25.5298 22.0186 25.2512 23.5255 25.9224 23.7091C26.1338 23.7666 26.4402 23.6917 26.8798 23.3955L26.8563 23.4652C26.8511 23.4808 26.846 23.4958 26.8412 23.5123C26.649 24.0901 26.4952 24.68 26.3809 25.2781H32.8579C32.8034 24.902 32.7189 24.5309 32.6051 24.1683C32.5971 24.1419 32.5891 24.1179 32.582 24.0953C32.766 24.1744 32.9547 24.2423 33.1469 24.2987C33.3855 24.3703 33.5771 24.3693 33.731 24.3237C34.2917 24.1565 34.351 23.3969 34.351 23.3969L34.592 21.5454L34.88 18.7846C34.9226 18.6649 34.9441 18.5387 34.9436 18.4116C34.9436 18.1456 34.8532 17.7877 34.5077 17.394ZM29.5897 15.6555C29.593 15.6235 29.5954 15.591 29.5973 15.559L29.6057 15.5646C29.6057 15.5952 29.6024 15.6258 29.5991 15.656C29.5991 15.656 29.5991 15.6593 29.5991 15.6611C29.59 15.7574 29.5695 15.8523 29.5379 15.9437C29.5629 15.8492 29.5802 15.7528 29.5897 15.6555ZM32.8583 22.3337C32.7138 22.3996 32.5213 22.3049 32.5213 22.3049C32.5378 22.3351 32.5533 22.3643 32.5684 22.3935C32.5685 22.3946 32.5685 22.3957 32.5684 22.3968L32.558 22.3911L32.4474 22.3346C32.4925 22.1107 32.5656 21.8933 32.6649 21.6876C32.7491 21.5162 32.8243 21.3405 32.8899 21.1612V21.1612C32.9177 21.082 32.9407 21.0095 32.9595 20.9427C32.9562 21.2393 32.9705 21.5358 33.0024 21.8308C33.0438 22.1514 32.9642 22.2861 32.8583 22.3337V22.3337Z" fill="url(#paint1_linear)"/>
<path d="M28.4323 11.9816C28.2783 12.0866 28.1169 12.2081 28.0623 12.3866C27.9738 12.6743 28.196 12.963 28.2176 13.2634C28.2576 13.8091 27.6405 14.2603 27.7314 14.8004C27.7935 15.1705 28.1729 15.4219 28.2459 15.7892C28.3522 16.3261 27.7709 16.7993 27.8166 17.3432C27.841 17.6337 28.043 17.8805 28.2717 18.0603C28.5934 18.3122 28.9783 18.4703 29.384 18.5171C29.3572 18.0505 29.0108 17.6252 29.0705 17.1614C29.1115 16.8436 29.3351 16.5832 29.4645 16.2898C29.6919 15.7746 29.6189 15.1785 29.4829 14.6323C29.3469 14.086 29.1496 13.5459 29.1397 12.9841C29.1336 12.6451 29.2927 12.1474 29.176 11.8258C29.0343 11.4359 28.6963 11.8017 28.4323 11.9816Z" fill="#B0605D"/>
<path opacity="0.1" d="M28.4793 11.8874C28.3254 11.9924 28.1639 12.1139 28.1093 12.2924C28.0208 12.5801 28.243 12.8688 28.2647 13.1692C28.3047 13.715 27.6876 14.1661 27.7784 14.7062C27.8406 15.0763 28.22 15.3278 28.2929 15.695C28.3993 16.2319 27.818 16.7051 27.8636 17.249C27.8881 17.5395 28.09 17.7863 28.3188 17.9662C28.6404 18.218 29.0253 18.3761 29.4311 18.4229C29.4043 17.9563 29.0578 17.5311 29.1176 17.0672C29.1586 16.7494 29.3821 16.489 29.5116 16.1956C29.7389 15.6805 29.666 15.0843 29.5299 14.5381C29.3939 13.9918 29.1967 13.4517 29.1868 12.89C29.1807 12.5509 29.3398 12.0532 29.223 11.7316C29.0814 11.3417 28.7434 11.7075 28.4793 11.8874Z" fill="black"/>
<path d="M28.9773 18.9659C28.9773 18.9659 26.4826 16.4231 28.3654 16.6114C28.7923 16.6543 29.0814 16.578 29.2729 16.4348C29.4913 16.2719 29.5831 16.0223 29.6085 15.7619C29.6603 15.2439 29.448 14.6789 29.448 14.6789C29.448 14.6789 31.9899 12.654 31.4721 15.1969C31.4152 15.4553 31.3821 15.7183 31.3732 15.9828C31.3648 16.5224 31.5422 16.7291 31.7912 16.8139C32.2111 16.9575 32.8353 16.7564 33.1196 17.2217C33.6374 18.0712 28.9773 18.9659 28.9773 18.9659Z" fill="#FFB9B9"/>
<path opacity="0.05" d="M31.4721 15.1988C31.4153 15.4572 31.3822 15.7202 31.3733 15.9847C31.3055 16.0081 31.2365 16.0278 31.1666 16.0435C30.9013 16.1034 30.6266 16.1092 30.3589 16.0607C30.0912 16.0121 29.8361 15.9102 29.6086 15.761C29.6604 15.243 29.4481 14.6779 29.4481 14.6779C29.4481 14.6779 31.9899 12.6559 31.4721 15.1988Z" fill="black"/>
<path d="M32.743 13.9744C32.743 14.5114 32.5298 15.0265 32.1502 15.4062C31.7706 15.7859 31.2558 15.9992 30.719 15.9992C30.1822 15.9992 29.6673 15.7859 29.2877 15.4062C28.9082 15.0265 28.6949 14.5114 28.6949 13.9744C28.6949 13.9367 28.6949 13.8991 28.6982 13.8619C28.7282 13.336 28.9619 12.8425 29.3497 12.4861C29.7375 12.1298 30.2489 11.9386 30.7752 11.9533C31.3016 11.9679 31.8015 12.1872 32.1689 12.5646C32.5363 12.9419 32.7423 13.4477 32.743 13.9744V13.9744Z" fill="#FFB9B9"/>
<path opacity="0.05" d="M28.9773 18.9659C28.9773 18.9659 26.4826 16.4231 28.3654 16.6114C28.7923 16.6543 29.0814 16.578 29.2729 16.4348C28.911 17.0395 28.4986 18.1253 30.3424 18.0241C32.0299 17.9299 32.0012 17.2575 31.7912 16.8158C32.2111 16.9594 32.8353 16.7583 33.1196 17.2236C33.6374 18.0712 28.9773 18.9659 28.9773 18.9659Z" fill="black"/>
<path d="M34.7638 18.8656C34.7521 18.9002 34.7374 18.9337 34.72 18.9659L34.0803 19.4542L33.9989 19.5168L32.9318 20.3314C32.9318 20.3314 33.0297 20.5029 32.8899 21.0048C32.8158 21.2592 32.7195 21.5066 32.6023 21.7441C32.5053 21.9484 32.4338 22.1638 32.3895 22.3855C32.3897 22.3888 32.3897 22.3921 32.3895 22.3954C32.3815 22.4363 32.3744 22.4768 32.3688 22.5168C32.3093 22.9171 32.3209 23.3247 32.4031 23.7209C32.404 23.7263 32.4051 23.7316 32.4064 23.7369C32.429 23.8443 32.4502 23.9173 32.4587 23.9446L32.4629 23.9573C32.4629 23.9573 32.4855 24.0176 32.5194 24.1231L32.5222 24.1325C32.6423 24.5067 32.7314 24.8902 32.7887 25.2791H26.4713C26.5854 24.6794 26.7387 24.0877 26.9302 23.5081L26.9533 23.4393C26.9147 23.4657 26.877 23.4906 26.8408 23.5133C26.403 23.7883 26.1126 23.817 25.9219 23.711C25.3915 23.4158 25.6353 22.0737 25.6353 22.0737C25.6353 22.0737 26.0415 18.8411 26.1766 17.6709C26.2543 16.998 27.2484 16.6171 28.1286 16.4099C28.5756 16.3063 29.029 16.2323 29.4857 16.1886H29.4951C29.4951 16.1886 29.4819 16.2046 29.4598 16.2356L29.457 16.2394C29.4405 16.2611 29.4193 16.2889 29.3958 16.3228C29.2401 16.5356 29.111 16.7666 29.0112 17.0107C28.8653 17.395 28.8403 17.8145 29.2673 18.0279C29.4824 18.1357 29.8119 18.1912 30.2977 18.1644C31.0484 18.123 31.4598 17.9662 31.6665 17.7665C31.7544 17.6851 31.8139 17.5777 31.8364 17.46V17.46C31.8905 17.1737 31.7164 16.8723 31.5954 16.7037C31.562 16.6573 31.5262 16.6127 31.4881 16.57V16.57L32.7223 16.658C33.3269 16.6977 33.8955 16.9599 34.3185 17.394C34.3476 17.4237 34.3759 17.4548 34.4032 17.4882C34.9426 18.114 34.8419 18.6508 34.7638 18.8656Z" fill="#FFD6EF"/>
<path opacity="0.05" d="M27.3769 18.7775C27.3769 18.7775 27.471 19.5309 27.2828 19.7664C27.0945 20.0018 27.0474 21.0849 27.2828 21.7441L27.3769 18.7775Z" fill="black"/>
<path d="M30.6366 20.3781H27.7888C27.6913 20.3781 27.6123 20.4571 27.6123 20.5546V21.52C27.6123 21.6175 27.6913 21.6965 27.7888 21.6965H30.6366C30.7341 21.6965 30.8131 21.6175 30.8131 21.52V20.5546C30.8131 20.4571 30.7341 20.3781 30.6366 20.3781Z" fill="#CDD0DB"/>
<path opacity="0.05" d="M30.6366 20.3781H27.7888C27.6913 20.3781 27.6123 20.4571 27.6123 20.5546V21.52C27.6123 21.6175 27.6913 21.6965 27.7888 21.6965H30.6366C30.7341 21.6965 30.8131 21.6175 30.8131 21.52V20.5546C30.8131 20.4571 30.7341 20.3781 30.6366 20.3781Z" fill="black"/>
<path d="M30.6366 20.4252H27.7888C27.6913 20.4252 27.6123 20.5042 27.6123 20.6017V21.5671C27.6123 21.6646 27.6913 21.7436 27.7888 21.7436H30.6366C30.7341 21.7436 30.8131 21.6646 30.8131 21.5671V20.6017C30.8131 20.5042 30.7341 20.4252 30.6366 20.4252Z" fill="#CDD0DB"/>
<path d="M30.1306 21.2021C30.2086 21.2021 30.2718 21.1389 30.2718 21.0609C30.2718 20.9828 30.2086 20.9196 30.1306 20.9196C30.0526 20.9196 29.9893 20.9828 29.9893 21.0609C29.9893 21.1389 30.0526 21.2021 30.1306 21.2021Z" fill="#9DA7C0"/>
<path opacity="0.05" d="M26.25 22.4665C26.2925 22.3399 26.3622 22.2242 26.454 22.1274C26.5459 22.0306 26.6578 21.9551 26.7819 21.9061C26.9429 21.8392 27.1392 21.7177 27.2385 21.496C27.424 21.0849 27.7535 20.6611 28.6008 20.9436C29.448 21.2261 28.3654 21.4145 28.3654 21.4145C28.3654 21.4145 30.2953 21.132 29.5422 21.697C28.7891 22.2621 27.8476 22.5917 27.8476 22.5917L27.384 23.0829C27.1016 23.3828 26.6111 23.3814 26.3484 23.0621C26.2307 22.918 26.1691 22.724 26.25 22.4665Z" fill="black"/>
<path d="M26.203 22.3723C26.2454 22.2458 26.3151 22.13 26.4069 22.0333C26.4988 21.9365 26.6107 21.8609 26.7349 21.8119C26.8958 21.7451 27.0921 21.6236 27.1915 21.4018C27.3769 20.9907 27.7064 20.5669 28.5537 20.8494C29.401 21.132 28.3183 21.3203 28.3183 21.3203C28.3183 21.3203 30.2482 21.0378 29.4951 21.6029C28.742 22.1679 27.8005 22.4976 27.8005 22.4976L27.3369 22.9887C27.0545 23.2886 26.564 23.2872 26.3013 22.968C26.1837 22.8239 26.122 22.6299 26.203 22.3723Z" fill="#FFB9B9"/>
<path opacity="0.05" d="M32.8372 23.3452L32.5077 24.1457L32.084 23.8354L30.9072 22.9684L30.107 22.4505C28.9773 21.6029 30.107 21.4616 30.107 21.4616C29.6834 21.2732 30.107 21.0849 30.107 21.0849C31.6133 20.7553 31.3309 21.9796 31.3309 21.9796L32.285 22.4745L32.6018 22.6388L32.8372 23.3452Z" fill="black"/>
<path d="M32.9313 23.251L32.6018 24.0515L32.1782 23.7412L31.0014 22.8743L30.2012 22.3563C29.0715 21.5087 30.2012 21.3674 30.2012 21.3674C29.7775 21.1791 30.2012 20.9907 30.2012 20.9907C31.7075 20.6611 31.425 21.8854 31.425 21.8854L32.3792 22.3803L32.696 22.5446L32.9313 23.251Z" fill="#FFB9B9"/>
<path opacity="0.05" d="M32.9313 23.251L32.6018 24.0515L32.1782 23.7412C32.5599 23.7548 33.0108 23.5702 32.3773 22.3803L32.6941 22.5446L32.9313 23.251Z" fill="black"/>
<path d="M34.6729 18.495L34.7638 18.8656L34.4847 21.6029L34.2493 23.4393C34.2493 23.4393 34.1552 24.6636 33.0725 24.334C31.9899 24.0044 31.8958 23.6748 31.8958 23.6748C31.8958 23.6748 33.4491 24.1928 32.4606 22.3563C32.4606 22.3563 33.0255 22.6388 32.9313 21.8854C32.8372 21.132 32.9313 19.8135 32.9313 19.8135L34.6729 18.495Z" fill="#FFD6EF"/>
<path opacity="0.05" d="M32.743 13.9744C32.7431 14.4337 32.5871 14.8793 32.3006 15.2381C32.0142 15.597 31.6143 15.8478 31.1666 15.9493C31.0988 15.7534 31.0508 15.5585 31.1002 15.3603C31.1944 14.9755 31.6397 14.6949 31.5903 14.3017C31.5854 14.2572 31.5692 14.2147 31.5432 14.1783C31.4439 14.0474 31.2415 14.1124 31.0805 14.1449C30.6644 14.2278 30.2087 13.9466 30.0958 13.5374C29.915 13.7153 29.6885 13.8397 29.4415 13.897C29.1945 13.9543 28.9364 13.9421 28.6959 13.8619C28.7259 13.336 28.9596 12.8425 29.3474 12.4861C29.7352 12.1298 30.2465 11.9386 30.7729 11.9533C31.2993 11.9679 31.7992 12.1872 32.1666 12.5646C32.534 12.9419 32.7399 13.4477 32.7407 13.9744H32.743Z" fill="black"/>
<path d="M30.1456 13.4432C30.2581 13.8524 30.7143 14.1336 31.1299 14.0502C31.2909 14.0182 31.4933 13.9532 31.5926 14.0841C31.618 14.1205 31.6334 14.1629 31.6373 14.207C31.6872 14.6007 31.2433 14.8809 31.1478 15.2661C31.0494 15.6626 31.3361 16.0454 31.3996 16.4489C31.433 16.6698 31.3996 16.8949 31.3996 17.1181C31.3996 17.3413 31.4523 17.5814 31.618 17.7302C31.7837 17.879 32.0887 17.8819 32.2003 17.6879C32.7298 17.968 32.5185 18.8359 32.9205 19.2799C33.1422 19.5248 33.507 19.5837 33.836 19.5526C33.9131 19.5514 33.988 19.5271 34.0511 19.4829C34.1055 19.4292 34.1423 19.3602 34.1566 19.2851C34.2396 18.9708 34.2253 18.6386 34.1156 18.3325C34.0629 18.1861 33.9871 18.0382 34.0069 17.8842C34.0219 17.7637 34.0939 17.6587 34.1702 17.564C34.423 17.2504 34.768 16.9471 34.7657 16.5441C34.7633 16.141 34.414 15.8377 34.2836 15.461C34.1062 14.9463 34.3524 14.3949 34.4536 13.86C34.5326 13.4261 34.5163 12.9802 34.4057 12.5532C34.295 12.1263 34.0928 11.7286 33.8129 11.3878C33.7103 11.2644 33.5912 11.1453 33.4364 11.0963C33.2043 11.0219 32.9572 11.1255 32.7148 11.1557C31.9146 11.256 31.1892 10.5562 30.3862 10.6188C30.333 10.6209 30.2806 10.6329 30.2318 10.6542C30.1277 10.7045 30.0717 10.8161 30.0072 10.9122C29.6528 11.442 28.9561 11.5931 28.4101 11.9218C26.8177 12.881 28.9256 14.6176 30.1456 13.4432Z" fill="#B0605D"/>
<path d="M39.8587 36.7401C39.8587 36.7401 39.1772 33.2856 40.5808 30.918C41.1758 29.9287 41.434 28.7731 41.3165 27.6246C41.256 27.0798 41.1457 26.5416 40.987 26.017" stroke="#535461" stroke-width="2" stroke-miterlimit="10"/>
<path d="M41.8635 24.5196C41.8258 24.9316 40.9691 26.0584 40.9691 26.0584C40.9691 26.0584 40.3328 24.7946 40.3709 24.3821C40.378 24.2826 40.4048 24.1855 40.4499 24.0965C40.4949 24.0075 40.5573 23.9284 40.6332 23.8639C40.7092 23.7993 40.7973 23.7505 40.8924 23.7205C40.9875 23.6904 41.0876 23.6796 41.1869 23.6887C41.2861 23.6978 41.3826 23.7267 41.4706 23.7736C41.5586 23.8205 41.6364 23.8844 41.6994 23.9618C41.7623 24.0391 41.8092 24.1282 41.8373 24.2239C41.8654 24.3196 41.8742 24.42 41.863 24.5191L41.8635 24.5196Z" fill="#6C63FF"/>
<path d="M42.8873 26.9159C42.6317 27.2413 41.301 27.7221 41.301 27.7221C41.301 27.7221 41.4535 26.3151 41.7091 25.9897C41.835 25.8431 42.0125 25.7508 42.2048 25.732C42.3971 25.7133 42.5891 25.7695 42.7409 25.889C42.8927 26.0085 42.9926 26.182 43.0196 26.3733C43.0466 26.5647 42.9987 26.7591 42.8859 26.9159H42.8873Z" fill="#6C63FF"/>
<path d="M42.475 30.813C42.0899 30.9646 40.699 30.7075 40.699 30.7075C40.699 30.7075 41.5406 29.5698 41.9256 29.4182C42.1098 29.349 42.3137 29.3549 42.4935 29.4348C42.6733 29.5147 42.8144 29.6621 42.8865 29.8451C42.9586 30.0282 42.9559 30.2323 42.8789 30.4134C42.8019 30.5945 42.6568 30.738 42.475 30.813V30.813Z" fill="#6C63FF"/>
<path d="M41.4997 33.6915C41.1457 33.9063 39.7312 33.8879 39.7312 33.8879C39.7312 33.8879 40.3685 32.6245 40.7225 32.4098C40.8067 32.3568 40.9006 32.3211 40.9987 32.3048C41.0968 32.2884 41.1971 32.2918 41.2939 32.3147C41.3907 32.3375 41.482 32.3794 41.5624 32.4379C41.6428 32.4965 41.7108 32.5704 41.7624 32.6555C41.814 32.7405 41.8481 32.835 41.8628 32.9334C41.8775 33.0318 41.8725 33.1321 41.848 33.2286C41.8236 33.325 41.7802 33.4156 41.7204 33.4951C41.6606 33.5746 41.5855 33.6414 41.4997 33.6915V33.6915Z" fill="#6C63FF"/>
<path d="M39.727 27.658C39.9962 27.9726 41.3457 28.3964 41.3457 28.3964C41.3457 28.3964 41.1339 26.9969 40.8651 26.6828C40.8016 26.6064 40.7236 26.5434 40.6355 26.4975C40.5474 26.4516 40.4511 26.4236 40.3522 26.4152C40.2532 26.4069 40.1536 26.4183 40.059 26.4488C39.9645 26.4793 39.877 26.5282 39.8016 26.5929C39.7261 26.6575 39.6643 26.7365 39.6197 26.8252C39.575 26.914 39.5484 27.0107 39.5415 27.1098C39.5346 27.2089 39.5474 27.3084 39.5792 27.4026C39.6111 27.4967 39.6613 27.5835 39.727 27.658V27.658Z" fill="#6C63FF"/>
<path d="M38.6288 31.0386C38.9795 31.258 40.3944 31.2585 40.3944 31.2585C40.3944 31.2585 39.774 29.9871 39.4229 29.7672C39.3394 29.7134 39.2461 29.6768 39.1484 29.6594C39.0506 29.642 38.9504 29.6442 38.8535 29.6659C38.7567 29.6875 38.6651 29.7283 38.5841 29.7857C38.503 29.8431 38.4342 29.916 38.3816 30.0002C38.329 30.0844 38.2937 30.1783 38.2776 30.2763C38.2616 30.3743 38.2652 30.4745 38.2882 30.5711C38.3112 30.6677 38.3531 30.7588 38.4116 30.839C38.4701 30.9193 38.5439 30.9871 38.6288 31.0386V31.0386Z" fill="#6C63FF"/>
<path d="M38.0117 34.4714C38.3205 34.7468 39.7147 34.987 39.7147 34.987C39.7147 34.987 39.3179 33.6285 39.0086 33.353C38.9355 33.2857 38.8497 33.2337 38.7563 33.1999C38.6628 33.1661 38.5636 33.1512 38.4644 33.1561C38.3651 33.161 38.2678 33.1857 38.1782 33.2285C38.0886 33.2714 38.0083 33.3317 37.9422 33.4059C37.8761 33.4801 37.8253 33.5667 37.793 33.6607C37.7606 33.7546 37.7473 33.8541 37.7537 33.9533C37.7601 34.0525 37.7862 34.1494 37.8304 34.2384C37.8746 34.3275 37.9361 34.4068 38.0112 34.4718L38.0117 34.4714Z" fill="#6C63FF"/>
<path d="M27.9846 7.42574C27.9846 6.95291 27.7968 6.49945 27.4626 6.16511C27.1284 5.83077 26.6751 5.64294 26.2025 5.64294H16.4927C16.02 5.64294 15.5667 5.83077 15.2325 6.16511C14.8983 6.49945 14.7106 6.95291 14.7106 7.42574C14.7106 7.89856 14.8983 8.35202 15.2325 8.68636C15.5667 9.0207 16.02 9.20853 16.4927 9.20853L24.611 9.19299L26.4783 10.8227V9.18451C26.8977 9.11907 27.28 8.9059 27.5562 8.58342C27.8323 8.26095 27.9843 7.85038 27.9846 7.42574Z" fill="#6C63FF"/>
<path d="M29.5855 27.7277H24.6901V29.1875H29.5855V27.7277Z" fill="#6C63FF"/>
<path opacity="0.1" d="M36.1284 27.7277H31.233V29.1875H36.1284V27.7277Z" fill="#6C63FF"/>
<defs>
<linearGradient id="paint0_linear" x1="30.4328" y1="37.2666" x2="30.4328" y2="2.08443" gradientUnits="userSpaceOnUse">
<stop stop-color="#808080" stop-opacity="0.25"/>
<stop offset="0.54" stop-color="#808080" stop-opacity="0.12"/>
<stop offset="1" stop-color="#808080" stop-opacity="0.1"/>
</linearGradient>
<linearGradient id="paint1_linear" x1="5448.15" y1="8571.22" x2="5448.15" y2="3911.33" gradientUnits="userSpaceOnUse">
<stop stop-color="#808080" stop-opacity="0.25"/>
<stop offset="0.54" stop-color="#808080" stop-opacity="0.12"/>
<stop offset="1" stop-color="#808080" stop-opacity="0.1"/>
</linearGradient>
</defs>
</svg>
