<svg width="300" height="373" viewBox="0 0 300 373" fill="none" xmlns="http://www.w3.org/2000/svg">
<path opacity="0.1" d="M146.997 158.61C136.292 157.325 126.279 153.38 116.174 150.044C104.935 146.352 93.4702 143.388 81.8502 141.171C69.4705 138.803 56.7088 137.26 44.2975 138.364C31.8862 139.467 19.7765 143.435 11.8604 150.691C-1.55045 162.997 -0.418759 181.652 4.01036 198.093C9.26671 217.601 18.3547 236.885 33.2305 253.499C43.8035 265.309 57.0707 275.532 70.2202 285.681C77.6538 291.408 85.1563 297.175 93.8393 301.677C101.916 305.861 110.835 308.861 119.69 311.818C129.146 314.979 138.625 318.157 148.388 320.573C179.549 328.285 212.354 328.044 244.429 327.357C255.718 327.119 267.517 326.725 276.987 322.314C284.366 318.866 289.625 313.28 293.609 307.324C298.822 299.52 302.114 290.207 298.412 281.503C292.954 268.665 274.25 261.102 268.023 248.459C260.043 232.235 275.542 215.087 271.156 198.2C269.332 191.174 264.188 184.824 258.736 178.902C245.733 164.782 228.451 151.92 205.222 153.8C185.555 155.386 167.618 161.087 146.997 158.61Z" fill="#6C63FF"/>
<path d="M99.0381 150.719H188.942C191.298 150.719 193.559 151.654 195.228 153.318C196.897 154.983 197.838 157.241 197.846 159.598V356.525C197.838 358.883 196.897 361.141 195.228 362.806C193.559 364.47 191.298 365.404 188.942 365.404H99.0381C96.6815 365.404 94.421 364.47 92.752 362.806C91.0829 361.141 90.1415 358.883 90.1339 356.525V159.595C90.1422 157.238 91.084 154.981 92.753 153.317C94.4219 151.654 96.682 150.719 99.0381 150.719Z" fill="url(#paint0_linear)"/>
<path d="M98.6704 364.583H189.304C193.566 364.583 197.022 361.126 197.022 356.862L197.022 160.084C197.022 155.82 193.566 152.363 189.304 152.363H98.6704C94.4079 152.363 90.9525 155.82 90.9525 160.084L90.9525 356.862C90.9525 361.126 94.4079 364.583 98.6704 364.583Z" fill="#4E5A86"/>
<path d="M98.7623 344.842H189.209L189.209 172.106H98.7623L98.7623 344.842Z" fill="white"/>
<path d="M144.398 358.824C147.577 358.824 150.154 356.246 150.154 353.066C150.154 349.886 147.577 347.307 144.398 347.307C141.219 347.307 138.642 349.886 138.642 353.066C138.642 356.246 141.219 358.824 144.398 358.824Z" fill="white"/>
<path opacity="0.1" d="M139.679 372.999C179.972 372.999 212.635 366.695 212.635 358.919C212.635 351.143 179.972 344.839 139.679 344.839C99.3855 344.839 66.7216 351.143 66.7216 358.919C66.7216 366.695 99.3855 372.999 139.679 372.999Z" fill="#6C63FF"/>
<path opacity="0.1" d="M178.886 198.869H109.088V292.256H178.886V198.869Z" fill="#6C63FF"/>
<path d="M168.853 244.14C168.68 243.945 168.505 243.755 168.324 243.565C169.712 241.991 171.151 240.373 171.136 238.35C171.122 235.888 168.939 234 168.123 231.672C167.014 228.512 168.554 225.115 169.186 221.825C169.679 219.151 169.576 216.401 168.884 213.771C168.191 211.142 166.927 208.698 165.182 206.613C164.541 205.855 163.797 205.122 162.841 204.823C161.39 204.363 159.845 205.001 158.334 205.188C153.339 205.803 148.795 201.499 143.777 201.884C143.445 201.896 143.118 201.97 142.812 202.102C142.163 202.412 141.813 203.096 141.411 203.688C139.851 205.987 137.234 207.136 134.629 208.286C134.302 208.383 133.991 208.526 133.704 208.711C132.923 209.076 132.153 209.455 131.426 209.886C127.807 212.058 127.233 214.843 128.362 217.164C128.791 218.021 129.389 218.781 130.119 219.4C130.092 219.541 130.058 219.68 130.016 219.817C129.278 222.472 126.693 224.854 127.164 227.615C127.267 228.153 127.462 228.669 127.738 229.141C128.505 230.529 129.775 231.727 130.263 233.233C130.313 233.385 130.355 233.541 130.387 233.698C130.651 235.014 130.231 236.267 129.654 237.511C124.151 238.784 117.935 241.129 117.453 245.269C116.608 252.47 114.069 272.36 114.069 272.36C114.069 272.36 112.369 281.555 116.464 282.676C117.754 283.026 119.624 282.569 122.307 280.762L122.163 281.187C122.132 281.282 122.1 281.374 122.071 281.475C120.898 285 119.96 288.6 119.262 292.25H158.785C158.453 289.955 157.937 287.69 157.243 285.477C157.194 285.316 157.145 285.17 157.102 285.032C158.225 285.515 159.376 285.929 160.549 286.273C162.005 286.71 163.174 286.704 164.113 286.425C167.534 285.405 167.896 280.771 167.896 280.771L169.367 269.472L171.125 252.625C171.384 251.895 171.516 251.125 171.513 250.35C171.513 248.726 170.961 246.542 168.853 244.14ZM138.843 233.531C138.863 233.336 138.877 233.138 138.889 232.942L138.94 232.977C138.94 233.164 138.92 233.35 138.9 233.534C138.9 233.534 138.9 233.554 138.9 233.566C138.845 234.153 138.719 234.732 138.527 235.29C138.679 234.713 138.785 234.125 138.843 233.531ZM158.788 274.282C157.906 274.685 156.732 274.107 156.732 274.107C156.832 274.291 156.927 274.469 157.019 274.647C157.02 274.654 157.02 274.661 157.019 274.667L156.956 274.633L156.281 274.288C156.556 272.922 157.002 271.595 157.608 270.34C158.122 269.294 158.58 268.222 158.981 267.128C159.15 266.645 159.291 266.202 159.406 265.794C159.385 267.604 159.473 269.414 159.667 271.214C159.92 273.17 159.434 273.992 158.788 274.282Z" fill="url(#paint1_linear)"/>
<path d="M131.78 211.113C130.84 211.754 129.855 212.495 129.522 213.584C128.982 215.34 130.338 217.101 130.47 218.934C130.714 222.265 126.948 225.018 127.503 228.313C127.882 230.572 130.197 232.106 130.642 234.348C131.291 237.623 127.744 240.511 128.023 243.83C128.172 245.603 129.404 247.108 130.8 248.206C132.763 249.743 135.112 250.707 137.588 250.993C137.424 248.146 135.31 245.551 135.675 242.721C135.924 240.781 137.289 239.192 138.079 237.402C139.466 234.258 139.021 230.621 138.191 227.288C137.361 223.954 136.157 220.659 136.097 217.231C136.059 215.162 137.03 212.124 136.318 210.162C135.453 207.783 133.391 210.015 131.78 211.113Z" fill="#B0605D"/>
<path opacity="0.1" d="M132.067 210.538C131.128 211.179 130.142 211.92 129.809 213.009C129.269 214.765 130.625 216.527 130.757 218.36C131.001 221.69 127.236 224.443 127.79 227.739C128.169 229.997 130.484 231.532 130.929 233.773C131.579 237.049 128.031 239.936 128.31 243.255C128.459 245.028 129.691 246.534 131.087 247.631C133.05 249.168 135.399 250.133 137.875 250.419C137.711 247.571 135.597 244.976 135.962 242.146C136.212 240.206 137.576 238.617 138.366 236.827C139.753 233.684 139.308 230.046 138.478 226.713C137.648 223.38 136.444 220.084 136.384 216.656C136.347 214.587 137.317 211.55 136.605 209.587C135.741 207.208 133.678 209.441 132.067 210.538Z" fill="black"/>
<path d="M135.106 253.732C135.106 253.732 119.882 238.215 131.372 239.365C133.977 239.626 135.741 239.161 136.91 238.287C138.242 237.293 138.802 235.77 138.958 234.181C139.274 231.02 137.978 227.572 137.978 227.572C137.978 227.572 153.489 215.216 150.329 230.733C149.982 232.31 149.78 233.915 149.726 235.529C149.674 238.821 150.757 240.083 152.277 240.6C154.839 241.476 158.647 240.25 160.382 243.088C163.542 248.272 135.106 253.732 135.106 253.732Z" fill="#FFB9B9"/>
<path opacity="0.05" d="M150.329 230.744C149.982 232.321 149.78 233.926 149.726 235.54C149.313 235.683 148.892 235.803 148.465 235.899C146.846 236.264 145.169 236.3 143.536 236.004C141.903 235.708 140.346 235.086 138.958 234.175C139.274 231.014 137.978 227.566 137.978 227.566C137.978 227.566 153.489 215.228 150.329 230.744Z" fill="black"/>
<path d="M158.084 223.273C158.084 226.55 156.783 229.693 154.467 232.01C152.151 234.327 149.009 235.629 145.733 235.629C142.458 235.629 139.316 234.327 137 232.01C134.684 229.693 133.382 226.55 133.382 223.273C133.382 223.043 133.382 222.814 133.403 222.587C133.586 219.377 135.012 216.366 137.378 214.192C139.745 212.017 142.865 210.851 146.077 210.94C149.289 211.03 152.339 212.368 154.581 214.67C156.823 216.973 158.08 220.059 158.084 223.273Z" fill="#FFB9B9"/>
<path opacity="0.05" d="M135.106 253.732C135.106 253.732 119.882 238.215 131.372 239.365C133.977 239.626 135.741 239.161 136.91 238.287C134.701 241.976 132.185 248.603 143.436 247.985C153.733 247.41 153.558 243.307 152.277 240.612C154.839 241.488 158.647 240.261 160.382 243.1C163.542 248.272 135.106 253.732 135.106 253.732Z" fill="black"/>
<path d="M170.415 253.12C170.344 253.331 170.254 253.536 170.148 253.732L166.245 256.711L165.748 257.094L159.236 262.065C159.236 262.065 159.834 263.11 158.981 266.174C158.528 267.726 157.941 269.235 157.226 270.685C156.634 271.931 156.198 273.245 155.927 274.598C155.929 274.618 155.929 274.639 155.927 274.659C155.878 274.909 155.835 275.156 155.801 275.4C155.438 277.842 155.509 280.33 156.011 282.747C156.016 282.78 156.022 282.813 156.031 282.845C156.169 283.5 156.298 283.946 156.349 284.112L156.375 284.19C156.375 284.19 156.513 284.558 156.72 285.201L156.737 285.259C157.47 287.543 158.014 289.883 158.363 292.256H119.814C120.51 288.596 121.446 284.986 122.614 281.449L122.755 281.029C122.519 281.19 122.29 281.342 122.068 281.48C119.397 283.158 117.625 283.334 116.462 282.687C113.224 280.885 114.712 272.696 114.712 272.696C114.712 272.696 117.191 252.97 118.015 245.83C118.489 241.724 124.556 239.399 129.927 238.135C132.655 237.503 135.421 237.051 138.208 236.784H138.265C138.265 236.784 138.185 236.882 138.05 237.072L138.033 237.095C137.932 237.227 137.803 237.396 137.659 237.603C136.709 238.902 135.921 240.312 135.313 241.801C134.422 244.146 134.27 246.706 136.875 248.008C138.188 248.666 140.198 249.005 143.163 248.841C147.744 248.588 150.254 247.631 151.515 246.413C152.052 245.916 152.415 245.261 152.552 244.542C152.883 242.795 151.82 240.956 151.082 239.928C150.878 239.644 150.659 239.372 150.427 239.112L157.958 239.649C161.648 239.891 165.117 241.491 167.698 244.14C167.876 244.321 168.048 244.511 168.215 244.715C171.507 248.534 170.892 251.809 170.415 253.12Z" fill="#FFD6EF"/>
<path opacity="0.05" d="M125.34 252.582C125.34 252.582 125.914 257.18 124.765 258.616C123.617 260.053 123.329 266.662 124.765 270.685L125.34 252.582Z" fill="black"/>
<path d="M145.231 262.349H127.853C127.258 262.349 126.776 262.831 126.776 263.427V269.317C126.776 269.912 127.258 270.395 127.853 270.395H145.231C145.826 270.395 146.308 269.912 146.308 269.317V263.427C146.308 262.831 145.826 262.349 145.231 262.349Z" fill="#CDD0DB"/>
<path opacity="0.05" d="M145.231 262.349H127.853C127.258 262.349 126.776 262.831 126.776 263.427V269.317C126.776 269.912 127.258 270.395 127.853 270.395H145.231C145.826 270.395 146.308 269.912 146.308 269.317V263.427C146.308 262.831 145.826 262.349 145.231 262.349Z" fill="black"/>
<path d="M145.231 262.636H127.853C127.258 262.636 126.776 263.119 126.776 263.714V269.604C126.776 270.199 127.258 270.682 127.853 270.682H145.231C145.826 270.682 146.308 270.199 146.308 269.604V263.714C146.308 263.119 145.826 262.636 145.231 262.636Z" fill="#CDD0DB"/>
<path d="M142.143 267.378C142.619 267.378 143.005 266.992 143.005 266.515C143.005 266.039 142.619 265.653 142.143 265.653C141.667 265.653 141.281 266.039 141.281 266.515C141.281 266.992 141.667 267.378 142.143 267.378Z" fill="#9DA7C0"/>
<path opacity="0.05" d="M118.464 275.093C118.723 274.32 119.148 273.614 119.708 273.024C120.269 272.433 120.952 271.972 121.709 271.673C122.692 271.265 123.889 270.524 124.495 269.17C125.627 266.662 127.638 264.076 132.808 265.8C137.978 267.524 131.372 268.673 131.372 268.673C131.372 268.673 143.148 266.949 138.553 270.397C133.957 273.846 128.212 275.857 128.212 275.857L125.383 278.854C123.66 280.684 120.667 280.676 119.064 278.728C118.346 277.848 117.97 276.664 118.464 275.093Z" fill="black"/>
<path d="M118.176 274.518C118.436 273.746 118.86 273.04 119.421 272.449C119.982 271.858 120.665 271.397 121.422 271.099C122.404 270.691 123.602 269.949 124.208 268.596C125.34 266.087 127.351 263.501 132.521 265.225C137.691 266.949 131.085 268.099 131.085 268.099C131.085 268.099 142.861 266.375 138.265 269.823C133.67 273.271 127.925 275.282 127.925 275.282L125.096 278.279C123.372 280.11 120.379 280.101 118.777 278.153C118.059 277.274 117.682 276.09 118.176 274.518Z" fill="#FFB9B9"/>
<path opacity="0.05" d="M158.659 280.454L156.648 285.339L154.063 283.446L146.882 278.156L141.999 274.995C135.106 269.823 141.999 268.961 141.999 268.961C139.414 267.811 141.999 266.662 141.999 266.662C151.191 264.651 149.467 272.122 149.467 272.122L155.29 275.142L157.223 276.144L158.659 280.454Z" fill="black"/>
<path d="M159.233 279.88L157.223 284.765L154.638 282.871L147.457 277.581L142.574 274.42C135.68 269.248 142.574 268.386 142.574 268.386C139.989 267.237 142.574 266.087 142.574 266.087C151.765 264.076 150.042 271.547 150.042 271.547L155.864 274.567L157.797 275.57L159.233 279.88Z" fill="#FFB9B9"/>
<path opacity="0.05" d="M159.233 279.88L157.223 284.765L154.638 282.871C156.967 282.954 159.719 281.828 155.853 274.567L157.786 275.57L159.233 279.88Z" fill="black"/>
<path d="M169.861 250.858L170.415 253.12L168.712 269.823L167.276 281.029C167.276 281.029 166.701 288.5 160.095 286.489C153.489 284.477 152.914 282.466 152.914 282.466C152.914 282.466 162.393 285.627 156.361 274.42C156.361 274.42 159.808 276.144 159.233 271.547C158.659 266.949 159.233 258.904 159.233 258.904L169.861 250.858Z" fill="#FFD6EF"/>
<path opacity="0.05" d="M158.084 223.273C158.085 226.076 157.133 228.795 155.385 230.985C153.637 233.174 151.197 234.705 148.465 235.324C148.051 234.129 147.758 232.94 148.06 231.73C148.634 229.382 151.352 227.67 151.05 225.27C151.02 224.999 150.922 224.74 150.763 224.518C150.157 223.719 148.922 224.115 147.939 224.314C145.4 224.819 142.62 223.104 141.93 220.607C140.827 221.692 139.446 222.452 137.938 222.801C136.431 223.15 134.856 223.076 133.388 222.587C133.571 219.377 134.998 216.366 137.364 214.192C139.73 212.017 142.851 210.851 146.062 210.94C149.274 211.03 152.325 212.368 154.567 214.67C156.809 216.973 158.065 220.059 158.07 223.273H158.084Z" fill="black"/>
<path d="M142.235 220.032C142.921 222.529 145.705 224.245 148.241 223.736C149.223 223.541 150.458 223.144 151.064 223.943C151.219 224.165 151.313 224.423 151.337 224.693C151.642 227.095 148.933 228.805 148.35 231.155C147.75 233.575 149.499 235.911 149.887 238.373C150.091 239.721 149.887 241.094 149.887 242.456C149.887 243.818 150.208 245.284 151.22 246.192C152.231 247.1 154.092 247.117 154.773 245.933C158.004 247.643 156.714 252.939 159.167 255.648C160.52 257.142 162.746 257.502 164.754 257.312C165.224 257.304 165.681 257.156 166.067 256.887C166.398 256.559 166.623 256.138 166.71 255.68C167.217 253.762 167.13 251.735 166.46 249.867C166.138 248.973 165.676 248.071 165.797 247.131C165.888 246.396 166.328 245.755 166.793 245.177C168.336 243.264 170.441 241.413 170.427 238.954C170.412 236.494 168.281 234.643 167.485 232.345C166.403 229.204 167.905 225.839 168.522 222.575C169.005 219.927 168.905 217.206 168.23 214.601C167.555 211.996 166.321 209.569 164.613 207.49C163.987 206.737 163.26 206.01 162.315 205.711C160.899 205.257 159.391 205.889 157.912 206.073C153.029 206.685 148.603 202.415 143.703 202.797C143.378 202.81 143.058 202.883 142.761 203.013C142.126 203.32 141.784 204.001 141.39 204.587C139.228 207.82 134.977 208.742 131.645 210.748C121.928 216.601 134.79 227.198 142.235 220.032Z" fill="#B0605D"/>
<path d="M201.505 362.192C201.505 362.192 197.346 341.112 205.911 326.665C209.542 320.628 211.117 313.576 210.401 306.568C210.032 303.244 209.359 299.96 208.39 296.758" stroke="#535461" stroke-width="2" stroke-miterlimit="10"/>
<path d="M213.738 287.621C213.509 290.135 208.281 297.011 208.281 297.011C208.281 297.011 204.398 289.299 204.63 286.782C204.674 286.175 204.837 285.582 205.112 285.039C205.387 284.496 205.768 284.014 206.231 283.62C206.695 283.226 207.233 282.928 207.813 282.745C208.393 282.561 209.004 282.495 209.61 282.551C210.215 282.607 210.804 282.783 211.341 283.069C211.878 283.355 212.353 283.745 212.737 284.217C213.121 284.689 213.407 285.233 213.579 285.817C213.75 286.401 213.804 287.013 213.736 287.618L213.738 287.621Z" fill="#6C63FF"/>
<path d="M219.986 302.244C218.426 304.229 210.306 307.163 210.306 307.163C210.306 307.163 211.237 298.577 212.796 296.592C213.564 295.697 214.648 295.134 215.821 295.019C216.994 294.905 218.166 295.248 219.093 295.977C220.019 296.706 220.628 297.765 220.793 298.933C220.958 300.1 220.665 301.286 219.977 302.244H219.986Z" fill="#6C63FF"/>
<path d="M217.47 326.024C215.12 326.949 206.632 325.38 206.632 325.38C206.632 325.38 211.768 318.438 214.118 317.513C215.241 317.09 216.486 317.127 217.583 317.614C218.68 318.102 219.541 319.001 219.981 320.118C220.421 321.235 220.404 322.481 219.934 323.586C219.465 324.691 218.579 325.566 217.47 326.024Z" fill="#6C63FF"/>
<path d="M211.518 343.589C209.358 344.9 200.727 344.787 200.727 344.787C200.727 344.787 204.616 337.078 206.776 335.768C207.29 335.444 207.862 335.227 208.461 335.127C209.06 335.027 209.672 335.048 210.263 335.187C210.853 335.327 211.41 335.583 211.901 335.94C212.392 336.297 212.807 336.748 213.121 337.267C213.436 337.786 213.644 338.363 213.734 338.963C213.824 339.563 213.793 340.176 213.644 340.764C213.495 341.353 213.23 341.905 212.865 342.391C212.5 342.876 212.042 343.283 211.518 343.589Z" fill="#6C63FF"/>
<path d="M200.701 306.772C202.344 308.692 210.579 311.278 210.579 311.278C210.579 311.278 209.286 302.738 207.646 300.821C207.259 300.355 206.782 299.971 206.245 299.691C205.708 299.41 205.12 299.24 204.516 299.189C203.912 299.137 203.304 299.207 202.727 299.393C202.151 299.579 201.617 299.878 201.156 300.272C200.696 300.667 200.319 301.149 200.046 301.69C199.774 302.232 199.612 302.822 199.569 303.427C199.527 304.032 199.605 304.639 199.799 305.213C199.994 305.787 200.3 306.317 200.701 306.772Z" fill="#6C63FF"/>
<path d="M194 327.4C196.14 328.739 204.774 328.742 204.774 328.742C204.774 328.742 200.988 320.984 198.845 319.642C198.336 319.314 197.767 319.091 197.17 318.984C196.574 318.878 195.962 318.892 195.371 319.024C194.78 319.156 194.221 319.405 193.727 319.755C193.233 320.105 192.813 320.55 192.492 321.064C192.171 321.578 191.955 322.151 191.857 322.749C191.759 323.347 191.781 323.958 191.921 324.548C192.062 325.137 192.318 325.693 192.675 326.183C193.031 326.673 193.482 327.086 194 327.4Z" fill="#6C63FF"/>
<path d="M190.234 348.348C192.119 350.029 200.626 351.494 200.626 351.494C200.626 351.494 198.205 343.204 196.318 341.523C195.871 341.113 195.348 340.795 194.778 340.589C194.208 340.383 193.602 340.292 192.997 340.322C192.391 340.352 191.797 340.502 191.25 340.764C190.703 341.026 190.214 341.393 189.81 341.846C189.407 342.299 189.097 342.827 188.9 343.401C188.702 343.974 188.621 344.581 188.66 345.187C188.699 345.792 188.858 346.383 189.128 346.926C189.398 347.47 189.773 347.954 190.231 348.351L190.234 348.348Z" fill="#6C63FF"/>
<path d="M129.048 183.313C129.048 180.427 127.902 177.66 125.863 175.62C123.824 173.58 121.058 172.434 118.173 172.434H58.9232C56.0391 172.434 53.2731 173.58 51.2337 175.62C49.1943 177.66 48.0486 180.427 48.0486 183.313C48.0486 186.198 49.1943 188.965 51.2337 191.005C53.2731 193.045 56.0391 194.191 58.9232 194.191L108.462 194.097L119.857 204.042V194.045C122.416 193.646 124.748 192.345 126.434 190.377C128.119 188.409 129.046 185.904 129.048 183.313Z" fill="#6C63FF"/>
<path d="M138.817 307.197H108.945V316.105H138.817V307.197Z" fill="#6C63FF"/>
<path opacity="0.1" d="M178.742 307.197H148.87V316.105H178.742V307.197Z" fill="#6C63FF"/>
<path d="M154.675 25.0563C155.129 25.0563 155.496 24.6883 155.496 24.2345C155.496 23.7806 155.129 23.4127 154.675 23.4127C154.221 23.4127 153.853 23.7806 153.853 24.2345C153.853 24.6883 154.221 25.0563 154.675 25.0563Z" fill="white"/>
<path d="M132.759 25.0562L150.275 25.0562C150.433 25.0562 150.562 24.9276 150.562 24.7689V23.6971C150.562 23.5384 150.433 23.4098 150.275 23.4098L132.759 23.4098C132.6 23.4098 132.472 23.5384 132.472 23.6971V24.7689C132.472 24.9276 132.6 25.0562 132.759 25.0562Z" fill="white"/>
<path opacity="0.2" d="M60.8017 49.4401C62.8735 49.4401 64.553 47.76 64.553 45.6874C64.553 43.6149 62.8735 41.9347 60.8017 41.9347C58.73 41.9347 57.0505 43.6149 57.0505 45.6874C57.0505 47.76 58.73 49.4401 60.8017 49.4401Z" fill="white"/>
<path opacity="0.2" d="M73.5491 49.4401C75.6208 49.4401 77.3003 47.76 77.3003 45.6874C77.3003 43.6149 75.6208 41.9347 73.5491 41.9347C71.4773 41.9347 69.7978 43.6149 69.7978 45.6874C69.7978 47.76 71.4773 49.4401 73.5491 49.4401Z" fill="white"/>
<path opacity="0.2" d="M86.2993 49.4401C88.3711 49.4401 90.0506 47.76 90.0506 45.6874C90.0506 43.6149 88.3711 41.9347 86.2993 41.9347C84.2276 41.9347 82.5481 43.6149 82.5481 45.6874C82.5481 47.76 84.2276 49.4401 86.2993 49.4401Z" fill="white"/>
<defs>
<linearGradient id="paint0_linear" x1="143.987" y1="365.404" x2="143.987" y2="150.719" gradientUnits="userSpaceOnUse">
<stop stop-color="#808080" stop-opacity="0.25"/>
<stop offset="0.54" stop-color="#808080" stop-opacity="0.12"/>
<stop offset="1" stop-color="#808080" stop-opacity="0.1"/>
</linearGradient>
<linearGradient id="paint1_linear" x1="33203.4" y1="52440.5" x2="33203.4" y2="24005.3" gradientUnits="userSpaceOnUse">
<stop stop-color="#808080" stop-opacity="0.25"/>
<stop offset="0.54" stop-color="#808080" stop-opacity="0.12"/>
<stop offset="1" stop-color="#808080" stop-opacity="0.1"/>
</linearGradient>
</defs>
</svg>
