<svg width="300" height="235" viewBox="0 0 300 235" fill="none" xmlns="http://www.w3.org/2000/svg">
<path opacity="0.1" d="M146.997 20.6098C136.292 19.3253 126.279 15.3801 116.174 12.0441C104.935 8.35213 93.4702 5.38829 81.8502 3.17096C69.4705 0.803258 56.7088 -0.73977 44.2975 0.363624C31.8862 1.46702 19.7765 5.43522 11.8604 12.6906C-1.55045 24.9975 -0.418759 43.6517 4.01036 60.0935C9.26671 79.6011 18.3547 98.8847 33.2305 115.499C43.8035 127.309 57.0707 137.532 70.2202 147.681C77.6538 153.408 85.1563 159.175 93.8393 163.677C101.916 167.861 110.835 170.861 119.69 173.818C129.146 176.979 138.625 180.157 148.388 182.573C179.549 190.285 212.354 190.044 244.429 189.357C255.718 189.119 267.517 188.725 276.987 184.314C284.366 180.866 289.625 175.28 293.609 169.324C298.822 161.52 302.114 152.207 298.412 143.503C292.954 130.665 274.25 123.102 268.023 110.459C260.043 94.2355 275.542 77.0869 271.156 60.1998C269.332 53.1743 264.188 46.824 258.736 40.9019C245.733 26.7819 228.451 13.9204 205.222 15.7997C185.555 17.3858 167.618 23.0867 146.997 20.6098Z" fill="#6C63FF"/>
<path d="M99.0381 12.7194H188.942C191.298 12.7194 193.559 13.6539 195.228 15.3182C196.897 16.9825 197.838 19.2408 197.846 21.5983V218.525C197.838 220.883 196.897 223.141 195.228 224.806C193.559 226.47 191.298 227.404 188.942 227.404H99.0381C96.6815 227.404 94.421 226.47 92.752 224.806C91.0829 223.141 90.1415 220.883 90.1339 218.525V21.5954C90.1422 19.2385 91.084 16.9809 92.753 15.3172C94.4219 13.6535 96.682 12.7194 99.0381 12.7194Z" fill="url(#paint0_linear)"/>
<path d="M98.6704 226.583H189.304C193.566 226.583 197.022 223.126 197.022 218.862L197.022 22.0839C197.022 17.8198 193.566 14.363 189.304 14.363H98.6704C94.4079 14.363 90.9525 17.8198 90.9525 22.0839L90.9525 218.862C90.9525 223.126 94.4079 226.583 98.6704 226.583Z" fill="#4E5A86"/>
<path d="M98.7623 206.842H189.209L189.209 34.1063H98.7623L98.7623 206.842Z" fill="white"/>
<path d="M144.398 220.824C147.577 220.824 150.154 218.246 150.154 215.066C150.154 211.886 147.577 209.307 144.398 209.307C141.219 209.307 138.642 211.886 138.642 215.066C138.642 218.246 141.219 220.824 144.398 220.824Z" fill="white"/>
<path opacity="0.1" d="M139.679 234.999C179.972 234.999 212.635 228.695 212.635 220.919C212.635 213.143 179.972 206.839 139.679 206.839C99.3855 206.839 66.7216 213.143 66.7216 220.919C66.7216 228.695 99.3855 234.999 139.679 234.999Z" fill="#6C63FF"/>
<path opacity="0.1" d="M178.886 60.8694H109.088V154.256H178.886V60.8694Z" fill="#6C63FF"/>
<path d="M168.853 106.14C168.68 105.945 168.505 105.755 168.324 105.565C169.712 103.991 171.151 102.373 171.136 100.35C171.122 97.8877 168.939 95.9998 168.123 93.6724C167.014 90.5116 168.554 87.1152 169.186 83.8251C169.679 81.151 169.576 78.401 168.884 75.7715C168.191 73.1419 166.927 70.6976 165.182 68.6132C164.541 67.8547 163.797 67.1219 162.841 66.8231C161.39 66.3634 159.845 67.0012 158.334 67.188C153.339 67.8029 148.795 63.4985 143.777 63.8836C143.445 63.8963 143.118 63.9704 142.812 64.102C142.163 64.4123 141.813 65.0962 141.411 65.6881C139.851 67.9868 137.234 69.1362 134.629 70.2856C134.302 70.3833 133.991 70.5265 133.704 70.7108C132.923 71.0758 132.153 71.4551 131.426 71.8861C127.807 74.0584 127.233 76.8427 128.362 79.1644C128.791 80.0205 129.389 80.7809 130.119 81.4C130.092 81.5405 130.058 81.6796 130.016 81.8166C129.278 84.4717 126.693 86.8537 127.164 89.6151C127.267 90.1526 127.462 90.6686 127.738 91.1409C128.505 92.5287 129.775 93.727 130.263 95.2326C130.313 95.3852 130.355 95.5407 130.387 95.6981C130.651 97.0142 130.231 98.267 129.654 99.5112C124.151 100.784 117.935 103.129 117.453 107.269C116.608 114.47 114.069 134.36 114.069 134.36C114.069 134.36 112.369 143.555 116.464 144.676C117.754 145.026 119.624 144.569 122.307 142.762L122.163 143.187C122.132 143.282 122.1 143.374 122.071 143.475C120.898 147 119.96 150.6 119.262 154.25H158.785C158.453 151.955 157.937 149.69 157.243 147.477C157.194 147.316 157.145 147.17 157.102 147.032C158.225 147.515 159.376 147.929 160.549 148.273C162.005 148.71 163.174 148.704 164.113 148.425C167.534 147.405 167.896 142.771 167.896 142.771L169.367 131.472L171.125 114.625C171.384 113.895 171.516 113.125 171.513 112.35C171.513 110.726 170.961 108.542 168.853 106.14ZM138.843 95.5315C138.863 95.3361 138.877 95.1378 138.889 94.9424L138.94 94.9769C138.94 95.1637 138.92 95.3504 138.9 95.5343C138.9 95.5343 138.9 95.5545 138.9 95.566C138.845 96.1534 138.719 96.7322 138.527 97.29C138.679 96.7133 138.785 96.1252 138.843 95.5315ZM158.788 136.282C157.906 136.685 156.732 136.107 156.732 136.107C156.832 136.291 156.927 136.469 157.019 136.647C157.02 136.654 157.02 136.661 157.019 136.667L156.956 136.633L156.281 136.288C156.556 134.922 157.002 133.595 157.608 132.34C158.122 131.294 158.58 130.222 158.981 129.128C159.15 128.645 159.291 128.202 159.406 127.794C159.385 129.604 159.473 131.414 159.667 133.214C159.92 135.17 159.434 135.992 158.788 136.282Z" fill="url(#paint1_linear)"/>
<path d="M131.78 73.113C130.84 73.7538 129.855 74.4951 129.522 75.5842C128.982 77.3398 130.338 79.1012 130.47 80.9345C130.714 84.2648 126.948 87.0175 127.503 90.3133C127.882 92.5718 130.197 94.1062 130.642 96.3475C131.291 99.6232 127.744 102.511 128.023 105.83C128.172 107.603 129.404 109.108 130.8 110.206C132.763 111.743 135.112 112.707 137.588 112.993C137.424 110.146 135.31 107.551 135.675 104.721C135.924 102.781 137.289 101.192 138.079 99.4019C139.466 96.2584 139.021 92.6207 138.191 89.2875C137.361 85.9543 136.157 82.6585 136.097 79.2305C136.059 77.1617 137.03 74.1245 136.318 72.1619C135.453 69.7827 133.391 72.0154 131.78 73.113Z" fill="#B0605D"/>
<path opacity="0.1" d="M132.067 72.5383C131.128 73.1791 130.142 73.9204 129.809 75.0095C129.269 76.7651 130.625 78.5265 130.757 80.3598C131.001 83.6901 127.236 86.4428 127.79 89.7386C128.169 91.9971 130.484 93.5315 130.929 95.7728C131.579 99.0485 128.031 101.936 128.31 105.255C128.459 107.028 129.691 108.534 131.087 109.631C133.05 111.168 135.399 112.133 137.875 112.419C137.711 109.571 135.597 106.976 135.962 104.146C136.212 102.206 137.576 100.617 138.366 98.8273C139.753 95.6837 139.308 92.046 138.478 88.7128C137.648 85.3796 136.444 82.0838 136.384 78.6558C136.347 76.587 137.317 73.5498 136.605 71.5872C135.741 69.208 133.678 71.4407 132.067 72.5383Z" fill="black"/>
<path d="M135.106 115.732C135.106 115.732 119.882 100.215 131.372 101.365C133.977 101.626 135.741 101.161 136.91 100.287C138.242 99.2928 138.802 97.7699 138.958 96.1809C139.274 93.0201 137.978 89.572 137.978 89.572C137.978 89.572 153.489 77.2163 150.329 92.7328C149.982 94.3096 149.78 95.9149 149.726 97.5285C149.674 100.821 150.757 102.083 152.277 102.6C154.839 103.476 158.647 102.25 160.382 105.088C163.542 110.272 135.106 115.732 135.106 115.732Z" fill="#FFB9B9"/>
<path opacity="0.05" d="M150.329 92.7442C149.982 94.3211 149.78 95.9263 149.726 97.54C149.313 97.6832 148.892 97.8031 148.465 97.8992C146.846 98.2644 145.169 98.3 143.536 98.0039C141.903 97.7077 140.346 97.0857 138.958 96.1751C139.274 93.0144 137.978 89.5662 137.978 89.5662C137.978 89.5662 153.489 77.2278 150.329 92.7442Z" fill="black"/>
<path d="M158.084 85.2733C158.084 88.5503 156.783 91.693 154.467 94.0101C152.151 96.3273 149.009 97.629 145.733 97.629C142.458 97.629 139.316 96.3273 137 94.0101C134.684 91.693 133.382 88.5503 133.382 85.2733C133.382 85.0435 133.382 84.8136 133.403 84.5866C133.586 81.3774 135.012 78.366 137.378 76.1916C139.745 74.0171 142.865 72.8508 146.077 72.9401C149.289 73.0295 152.339 74.3675 154.581 76.6702C156.823 78.9729 158.08 82.059 158.084 85.2733Z" fill="#FFB9B9"/>
<path opacity="0.05" d="M135.106 115.732C135.106 115.732 119.882 100.215 131.372 101.365C133.977 101.626 135.741 101.161 136.91 100.287C134.701 103.976 132.185 110.603 143.436 109.985C153.733 109.41 153.558 105.307 152.277 102.612C154.839 103.488 158.647 102.261 160.382 105.1C163.542 110.272 135.106 115.732 135.106 115.732Z" fill="black"/>
<path d="M170.415 115.12C170.344 115.331 170.254 115.536 170.148 115.732L166.245 118.711L165.748 119.094L159.236 124.065C159.236 124.065 159.834 125.11 158.981 128.174C158.528 129.726 157.941 131.235 157.226 132.685C156.634 133.931 156.198 135.245 155.927 136.598C155.929 136.618 155.929 136.639 155.927 136.659C155.878 136.909 155.835 137.156 155.801 137.4C155.438 139.842 155.509 142.33 156.011 144.747C156.016 144.78 156.022 144.813 156.031 144.845C156.169 145.5 156.298 145.946 156.349 146.112L156.375 146.19C156.375 146.19 156.513 146.558 156.72 147.201L156.737 147.259C157.47 149.543 158.014 151.883 158.363 154.256H119.814C120.51 150.596 121.446 146.986 122.614 143.449L122.755 143.029C122.519 143.19 122.29 143.342 122.068 143.48C119.397 145.158 117.625 145.334 116.462 144.687C113.224 142.885 114.712 134.696 114.712 134.696C114.712 134.696 117.191 114.97 118.015 107.83C118.489 103.724 124.556 101.399 129.927 100.135C132.655 99.5025 135.421 99.0513 138.208 98.7842H138.265C138.265 98.7842 138.185 98.8819 138.05 99.0715L138.033 99.0945C137.932 99.2267 137.803 99.3962 137.659 99.6031C136.709 100.902 135.921 102.312 135.313 103.801C134.422 106.146 134.27 108.706 136.875 110.008C138.188 110.666 140.198 111.005 143.163 110.841C147.744 110.588 150.254 109.631 151.515 108.413C152.052 107.916 152.415 107.261 152.552 106.542C152.883 104.795 151.82 102.956 151.082 101.928C150.878 101.644 150.659 101.372 150.427 101.112L157.958 101.649C161.648 101.891 165.117 103.491 167.698 106.14C167.876 106.321 168.048 106.511 168.215 106.715C171.507 110.534 170.892 113.809 170.415 115.12Z" fill="#FFD6EF"/>
<path opacity="0.05" d="M125.34 114.582C125.34 114.582 125.914 119.18 124.765 120.616C123.617 122.053 123.329 128.662 124.765 132.685L125.34 114.582Z" fill="black"/>
<path d="M145.231 124.349H127.853C127.258 124.349 126.776 124.831 126.776 125.427V131.317C126.776 131.912 127.258 132.395 127.853 132.395H145.231C145.826 132.395 146.308 131.912 146.308 131.317V125.427C146.308 124.831 145.826 124.349 145.231 124.349Z" fill="#CDD0DB"/>
<path opacity="0.05" d="M145.231 124.349H127.853C127.258 124.349 126.776 124.831 126.776 125.427V131.317C126.776 131.912 127.258 132.395 127.853 132.395H145.231C145.826 132.395 146.308 131.912 146.308 131.317V125.427C146.308 124.831 145.826 124.349 145.231 124.349Z" fill="black"/>
<path d="M145.231 124.636H127.853C127.258 124.636 126.776 125.119 126.776 125.714V131.604C126.776 132.199 127.258 132.682 127.853 132.682H145.231C145.826 132.682 146.308 132.199 146.308 131.604V125.714C146.308 125.119 145.826 124.636 145.231 124.636Z" fill="#CDD0DB"/>
<path d="M142.143 129.378C142.619 129.378 143.005 128.992 143.005 128.515C143.005 128.039 142.619 127.653 142.143 127.653C141.667 127.653 141.281 128.039 141.281 128.515C141.281 128.992 141.667 129.378 142.143 129.378Z" fill="#9DA7C0"/>
<path opacity="0.05" d="M118.464 137.093C118.723 136.32 119.148 135.614 119.708 135.024C120.269 134.433 120.952 133.972 121.709 133.673C122.692 133.265 123.889 132.524 124.495 131.17C125.627 128.662 127.638 126.076 132.808 127.8C137.978 129.524 131.372 130.673 131.372 130.673C131.372 130.673 143.148 128.949 138.553 132.397C133.957 135.846 128.212 137.857 128.212 137.857L125.383 140.854C123.66 142.684 120.667 142.676 119.064 140.728C118.346 139.848 117.97 138.664 118.464 137.093Z" fill="black"/>
<path d="M118.176 136.518C118.436 135.746 118.86 135.04 119.421 134.449C119.982 133.858 120.665 133.397 121.422 133.099C122.404 132.691 123.602 131.949 124.208 130.596C125.34 128.087 127.351 125.501 132.521 127.225C137.691 128.949 131.085 130.099 131.085 130.099C131.085 130.099 142.861 128.375 138.265 131.823C133.67 135.271 127.925 137.282 127.925 137.282L125.096 140.279C123.372 142.11 120.379 142.101 118.777 140.153C118.059 139.274 117.682 138.09 118.176 136.518Z" fill="#FFB9B9"/>
<path opacity="0.05" d="M158.659 142.454L156.648 147.339L154.063 145.446L146.882 140.156L141.999 136.995C135.106 131.823 141.999 130.961 141.999 130.961C139.414 129.811 141.999 128.662 141.999 128.662C151.191 126.651 149.467 134.122 149.467 134.122L155.29 137.142L157.223 138.144L158.659 142.454Z" fill="black"/>
<path d="M159.233 141.88L157.223 146.765L154.638 144.871L147.457 139.581L142.574 136.42C135.68 131.248 142.574 130.386 142.574 130.386C139.989 129.237 142.574 128.087 142.574 128.087C151.765 126.076 150.042 133.547 150.042 133.547L155.864 136.567L157.797 137.57L159.233 141.88Z" fill="#FFB9B9"/>
<path opacity="0.05" d="M159.233 141.88L157.223 146.765L154.638 144.871C156.967 144.954 159.719 143.828 155.853 136.567L157.786 137.57L159.233 141.88Z" fill="black"/>
<path d="M169.861 112.858L170.415 115.12L168.712 131.823L167.276 143.029C167.276 143.029 166.701 150.5 160.095 148.489C153.489 146.477 152.914 144.466 152.914 144.466C152.914 144.466 162.393 147.627 156.361 136.42C156.361 136.42 159.808 138.144 159.233 133.547C158.659 128.949 159.233 120.904 159.233 120.904L169.861 112.858Z" fill="#FFD6EF"/>
<path opacity="0.05" d="M158.084 85.2733C158.085 88.0756 157.133 90.7948 155.385 92.9846C153.637 95.1744 151.197 96.7047 148.465 97.3245C148.051 96.1291 147.758 94.9395 148.06 93.7298C148.634 91.3822 151.352 89.6697 151.05 87.2704C151.02 86.9989 150.922 86.7397 150.763 86.5175C150.157 85.7187 148.922 86.1152 147.939 86.3135C145.4 86.8192 142.62 85.1038 141.93 82.6068C140.827 83.6922 139.446 84.4516 137.938 84.8009C136.431 85.1503 134.856 85.0761 133.388 84.5866C133.571 81.3774 134.998 78.366 137.364 76.1916C139.73 74.0171 142.851 72.8508 146.062 72.9401C149.274 73.0295 152.325 74.3675 154.567 76.6702C156.809 78.9729 158.065 82.059 158.07 85.2733H158.084Z" fill="black"/>
<path d="M142.235 82.0321C142.921 84.5291 145.705 86.2446 148.241 85.736C149.223 85.5406 150.458 85.144 151.064 85.9428C151.219 86.1648 151.313 86.4233 151.337 86.6928C151.642 89.095 148.933 90.8047 148.35 93.1551C147.75 95.5746 149.499 97.9107 149.887 100.373C150.091 101.721 149.887 103.094 149.887 104.456C149.887 105.818 150.208 107.284 151.22 108.192C152.231 109.1 154.092 109.117 154.773 107.933C158.004 109.643 156.714 114.939 159.167 117.648C160.52 119.142 162.746 119.502 164.754 119.312C165.224 119.304 165.681 119.156 166.067 118.887C166.398 118.559 166.623 118.138 166.71 117.68C167.217 115.762 167.13 113.735 166.46 111.867C166.138 110.973 165.676 110.071 165.797 109.131C165.888 108.396 166.328 107.755 166.793 107.177C168.336 105.264 170.441 103.413 170.427 100.954C170.412 98.494 168.281 96.6435 167.485 94.3447C166.403 91.2041 167.905 87.8393 168.522 84.5751C169.005 81.9275 168.905 79.2064 168.23 76.6013C167.555 73.9961 166.321 71.5693 164.613 69.4896C163.987 68.7368 163.26 68.0098 162.315 67.711C160.899 67.257 159.391 67.8891 157.912 68.073C153.029 68.6851 148.603 64.4152 143.703 64.7973C143.378 64.8098 143.058 64.8829 142.761 65.0128C142.126 65.3203 141.784 66.0013 141.39 66.5875C139.228 69.8201 134.977 70.7424 131.645 72.7481C121.928 78.6013 134.79 89.1984 142.235 82.0321Z" fill="#B0605D"/>
<path d="M201.505 224.192C201.505 224.192 197.346 203.112 205.911 188.665C209.542 182.628 211.117 175.576 210.401 168.568C210.032 165.244 209.359 161.96 208.39 158.758" stroke="#535461" stroke-width="2" stroke-miterlimit="10"/>
<path d="M213.738 149.621C213.509 152.135 208.281 159.011 208.281 159.011C208.281 159.011 204.398 151.299 204.63 148.782C204.674 148.175 204.837 147.582 205.112 147.039C205.387 146.496 205.768 146.014 206.231 145.62C206.695 145.226 207.233 144.928 207.813 144.745C208.393 144.561 209.004 144.495 209.61 144.551C210.215 144.607 210.804 144.783 211.341 145.069C211.878 145.355 212.353 145.745 212.737 146.217C213.121 146.689 213.407 147.233 213.579 147.817C213.75 148.401 213.804 149.013 213.736 149.618L213.738 149.621Z" fill="#6C63FF"/>
<path d="M219.986 164.244C218.426 166.229 210.306 169.163 210.306 169.163C210.306 169.163 211.237 160.577 212.796 158.592C213.564 157.697 214.648 157.134 215.821 157.019C216.994 156.905 218.166 157.248 219.093 157.977C220.019 158.706 220.628 159.765 220.793 160.933C220.958 162.1 220.665 163.286 219.977 164.244H219.986Z" fill="#6C63FF"/>
<path d="M217.47 188.024C215.12 188.949 206.632 187.38 206.632 187.38C206.632 187.38 211.768 180.438 214.118 179.513C215.241 179.09 216.486 179.127 217.583 179.614C218.68 180.102 219.541 181.001 219.981 182.118C220.421 183.235 220.404 184.481 219.934 185.586C219.465 186.691 218.579 187.566 217.47 188.024Z" fill="#6C63FF"/>
<path d="M211.518 205.589C209.358 206.9 200.727 206.787 200.727 206.787C200.727 206.787 204.616 199.078 206.776 197.768C207.29 197.444 207.862 197.227 208.461 197.127C209.06 197.027 209.672 197.048 210.263 197.187C210.853 197.327 211.41 197.583 211.901 197.94C212.392 198.297 212.807 198.748 213.121 199.267C213.436 199.786 213.644 200.363 213.734 200.963C213.824 201.563 213.793 202.176 213.644 202.764C213.495 203.353 213.23 203.905 212.865 204.391C212.5 204.876 212.042 205.283 211.518 205.589Z" fill="#6C63FF"/>
<path d="M200.701 168.772C202.344 170.692 210.579 173.278 210.579 173.278C210.579 173.278 209.286 164.738 207.646 162.821C207.259 162.355 206.782 161.971 206.245 161.691C205.708 161.41 205.12 161.24 204.516 161.189C203.912 161.137 203.304 161.207 202.727 161.393C202.151 161.579 201.617 161.878 201.156 162.272C200.696 162.667 200.319 163.149 200.046 163.69C199.774 164.232 199.612 164.822 199.569 165.427C199.527 166.032 199.605 166.639 199.799 167.213C199.994 167.787 200.3 168.317 200.701 168.772Z" fill="#6C63FF"/>
<path d="M194 189.4C196.14 190.739 204.774 190.742 204.774 190.742C204.774 190.742 200.988 182.984 198.845 181.642C198.336 181.314 197.767 181.091 197.17 180.984C196.574 180.878 195.962 180.892 195.371 181.024C194.78 181.156 194.221 181.405 193.727 181.755C193.233 182.105 192.813 182.55 192.492 183.064C192.171 183.578 191.955 184.151 191.857 184.749C191.759 185.347 191.781 185.958 191.921 186.548C192.062 187.137 192.318 187.693 192.675 188.183C193.031 188.673 193.482 189.086 194 189.4Z" fill="#6C63FF"/>
<path d="M190.234 210.348C192.119 212.029 200.626 213.494 200.626 213.494C200.626 213.494 198.205 205.204 196.318 203.523C195.871 203.113 195.348 202.795 194.778 202.589C194.208 202.383 193.602 202.292 192.997 202.322C192.391 202.352 191.797 202.502 191.25 202.764C190.703 203.026 190.214 203.393 189.81 203.846C189.407 204.299 189.097 204.827 188.9 205.401C188.702 205.974 188.621 206.581 188.66 207.187C188.699 207.792 188.858 208.383 189.128 208.926C189.398 209.47 189.773 209.954 190.231 210.351L190.234 210.348Z" fill="#6C63FF"/>
<path d="M129.048 45.3126C129.048 42.4274 127.902 39.6604 125.863 37.6202C123.824 35.58 121.058 34.4339 118.173 34.4339H58.9232C56.0391 34.4339 53.2731 35.58 51.2337 37.6202C49.1943 39.6604 48.0486 42.4274 48.0486 45.3126C48.0486 48.1979 49.1943 50.9649 51.2337 53.0051C53.2731 55.0453 56.0391 56.1914 58.9232 56.1914L108.462 56.0966L119.857 66.0415V56.0449C122.416 55.6455 124.748 54.3447 126.434 52.377C128.119 50.4092 129.046 47.9039 129.048 45.3126Z" fill="#6C63FF"/>
<path d="M138.817 169.197H108.945V178.105H138.817V169.197Z" fill="#6C63FF"/>
<path opacity="0.1" d="M178.742 169.197H148.87V178.105H178.742V169.197Z" fill="#6C63FF"/>
<defs>
<linearGradient id="paint0_linear" x1="143.987" y1="227.404" x2="143.987" y2="12.7194" gradientUnits="userSpaceOnUse">
<stop stop-color="#808080" stop-opacity="0.25"/>
<stop offset="0.54" stop-color="#808080" stop-opacity="0.12"/>
<stop offset="1" stop-color="#808080" stop-opacity="0.1"/>
</linearGradient>
<linearGradient id="paint1_linear" x1="33203.4" y1="52302.5" x2="33203.4" y2="23867.3" gradientUnits="userSpaceOnUse">
<stop stop-color="#808080" stop-opacity="0.25"/>
<stop offset="0.54" stop-color="#808080" stop-opacity="0.12"/>
<stop offset="1" stop-color="#808080" stop-opacity="0.1"/>
</linearGradient>
</defs>
</svg>
